<svg xmlns="http://www.w3.org/2000/svg" width="24" height="24" viewBox="0 0 24 24">
  <path id="icons8-github" d="M12.693,2.116A12.185,12.185,0,0,0,2.112,12.886a12.493,12.493,0,0,0,7.575,13c.361.124.721-.124.721-.619V23.283a4.827,4.827,0,0,1-1.082.124A2.629,2.629,0,0,1,6.8,21.055a2.584,2.584,0,0,0-.721-1.238c-.361-.124-.481-.124-.481-.248,0-.248.361-.248.481-.248.721,0,1.323.866,1.563,1.238A2.189,2.189,0,0,0,9.327,21.8a2.345,2.345,0,0,0,1.082-.248,3.161,3.161,0,0,1,1.2-2.228C8.846,18.7,6.8,17.094,6.8,14.371a5.929,5.929,0,0,1,1.443-3.713A4.714,4.714,0,0,1,8,8.925a4.353,4.353,0,0,1,.361-1.981,5.33,5.33,0,0,1,3.367,1.609,6.339,6.339,0,0,1,2.285-.371,7.549,7.549,0,0,1,2.4.371,5.107,5.107,0,0,1,3.367-1.609,6.324,6.324,0,0,1,.24,1.981,4.225,4.225,0,0,1-.24,1.733,5.665,5.665,0,0,1,1.443,3.713c0,2.723-2.044,4.332-4.81,4.951a3.868,3.868,0,0,1,1.2,2.847v3.218a.659.659,0,0,0,.842.619,12.436,12.436,0,0,0,7.575-11.512C26.041,7.068,19.908,1.25,12.693,2.116Z" transform="translate(-2.041 -2.031)" fill="#fff"/>
</svg>
