<svg xmlns="http://www.w3.org/2000/svg" width="100" height="100" viewBox="0 0 100 100">
  <g id="グループ_83" data-name="グループ 83" transform="translate(-831 -1120)">
    <rect id="長方形_4496" data-name="長方形 4496" width="100" height="100" transform="translate(831 1120)" fill="#fff"/>
    <g id="グループ_80" data-name="グループ 80" transform="translate(303 -12)">
      <rect id="長方形_2448" data-name="長方形 2448" width="3" height="3" transform="translate(541 1145)" fill="#17b911"/>
      <rect id="長方形_2449" data-name="長方形 2449" width="3" height="3" transform="translate(544 1145)" fill="#17b911"/>
      <rect id="長方形_2450" data-name="長方形 2450" width="3" height="3" transform="translate(547 1145)" fill="#17b911"/>
      <rect id="長方形_2451" data-name="長方形 2451" width="3" height="3" transform="translate(550 1145)" fill="#17b911"/>
      <rect id="長方形_2452" data-name="長方形 2452" width="3" height="3" transform="translate(553 1145)" fill="#17b911"/>
      <rect id="長方形_2453" data-name="長方形 2453" width="3" height="3" transform="translate(556 1145)" fill="#17b911"/>
      <rect id="長方形_2454" data-name="長方形 2454" width="3" height="3" transform="translate(559 1145)" fill="#17b911"/>
      <rect id="長方形_2455" data-name="長方形 2455" width="3" height="3" transform="translate(568 1145)" fill="#17b911"/>
      <rect id="長方形_2456" data-name="長方形 2456" width="3" height="3" transform="translate(571 1145)" fill="#17b911"/>
      <rect id="長方形_2457" data-name="長方形 2457" width="3" height="3" transform="translate(574 1145)" fill="#17b911"/>
      <rect id="長方形_2458" data-name="長方形 2458" width="3" height="3" transform="translate(589 1145)" fill="#17b911"/>
      <rect id="長方形_2459" data-name="長方形 2459" width="3" height="3" transform="translate(595 1145)" fill="#17b911"/>
      <rect id="長方形_2460" data-name="長方形 2460" width="3" height="3" transform="translate(598 1145)" fill="#17b911"/>
      <rect id="長方形_2461" data-name="長方形 2461" width="3" height="3" transform="translate(601 1145)" fill="#17b911"/>
      <rect id="長方形_2462" data-name="長方形 2462" width="3" height="3" transform="translate(604 1145)" fill="#17b911"/>
      <rect id="長方形_2463" data-name="長方形 2463" width="3" height="3" transform="translate(607 1145)" fill="#17b911"/>
      <rect id="長方形_2464" data-name="長方形 2464" width="3" height="3" transform="translate(610 1145)" fill="#17b911"/>
      <rect id="長方形_2465" data-name="長方形 2465" width="3" height="3" transform="translate(613 1145)" fill="#17b911"/>
      <rect id="長方形_2466" data-name="長方形 2466" width="3" height="3" transform="translate(541 1148)" fill="#17b911"/>
      <rect id="長方形_2467" data-name="長方形 2467" width="3" height="3" transform="translate(559 1148)" fill="#17b911"/>
      <rect id="長方形_2468" data-name="長方形 2468" width="3" height="3" transform="translate(565 1148)" fill="#17b911"/>
      <rect id="長方形_2469" data-name="長方形 2469" width="3" height="3" transform="translate(571 1148)" fill="#17b911"/>
      <rect id="長方形_2470" data-name="長方形 2470" width="3" height="3" transform="translate(574 1148)" fill="#17b911"/>
      <rect id="長方形_2471" data-name="長方形 2471" width="3" height="3" transform="translate(577 1148)" fill="#17b911"/>
      <rect id="長方形_2472" data-name="長方形 2472" width="3" height="3" transform="translate(580 1148)" fill="#17b911"/>
      <rect id="長方形_2473" data-name="長方形 2473" width="3" height="3" transform="translate(583 1148)" fill="#17b911"/>
      <rect id="長方形_2474" data-name="長方形 2474" width="3" height="3" transform="translate(595 1148)" fill="#17b911"/>
      <rect id="長方形_2475" data-name="長方形 2475" width="3" height="3" transform="translate(613 1148)" fill="#17b911"/>
      <rect id="長方形_2476" data-name="長方形 2476" width="3" height="3" transform="translate(541 1151)" fill="#17b911"/>
      <rect id="長方形_2477" data-name="長方形 2477" width="3" height="3" transform="translate(547 1151)" fill="#17b911"/>
      <rect id="長方形_2478" data-name="長方形 2478" width="3" height="3" transform="translate(550 1151)" fill="#17b911"/>
      <rect id="長方形_2479" data-name="長方形 2479" width="3" height="3" transform="translate(553 1151)" fill="#17b911"/>
      <rect id="長方形_2480" data-name="長方形 2480" width="3" height="3" transform="translate(559 1151)" fill="#17b911"/>
      <rect id="長方形_2481" data-name="長方形 2481" width="3" height="3" transform="translate(574 1151)" fill="#17b911"/>
      <rect id="長方形_2482" data-name="長方形 2482" width="3" height="3" transform="translate(580 1151)" fill="#17b911"/>
      <rect id="長方形_2483" data-name="長方形 2483" width="3" height="3" transform="translate(595 1151)" fill="#17b911"/>
      <rect id="長方形_2484" data-name="長方形 2484" width="3" height="3" transform="translate(601 1151)" fill="#17b911"/>
      <rect id="長方形_2485" data-name="長方形 2485" width="3" height="3" transform="translate(604 1151)" fill="#17b911"/>
      <rect id="長方形_2486" data-name="長方形 2486" width="3" height="3" transform="translate(607 1151)" fill="#17b911"/>
      <rect id="長方形_2487" data-name="長方形 2487" width="3" height="3" transform="translate(613 1151)" fill="#17b911"/>
      <rect id="長方形_2488" data-name="長方形 2488" width="3" height="3" transform="translate(541 1154)" fill="#17b911"/>
      <rect id="長方形_2489" data-name="長方形 2489" width="3" height="3" transform="translate(547 1154)" fill="#17b911"/>
      <rect id="長方形_2490" data-name="長方形 2490" width="3" height="3" transform="translate(550 1154)" fill="#17b911"/>
      <rect id="長方形_2491" data-name="長方形 2491" width="3" height="3" transform="translate(553 1154)" fill="#17b911"/>
      <rect id="長方形_2492" data-name="長方形 2492" width="3" height="3" transform="translate(559 1154)" fill="#17b911"/>
      <rect id="長方形_2493" data-name="長方形 2493" width="3" height="3" transform="translate(565 1154)" fill="#17b911"/>
      <rect id="長方形_2494" data-name="長方形 2494" width="3" height="3" transform="translate(568 1154)" fill="#17b911"/>
      <rect id="長方形_2495" data-name="長方形 2495" width="3" height="3" transform="translate(571 1154)" fill="#17b911"/>
      <rect id="長方形_2496" data-name="長方形 2496" width="3" height="3" transform="translate(580 1154)" fill="#17b911"/>
      <rect id="長方形_2497" data-name="長方形 2497" width="3" height="3" transform="translate(583 1154)" fill="#17b911"/>
      <rect id="長方形_2498" data-name="長方形 2498" width="3" height="3" transform="translate(586 1154)" fill="#17b911"/>
      <rect id="長方形_2499" data-name="長方形 2499" width="3" height="3" transform="translate(589 1154)" fill="#17b911"/>
      <rect id="長方形_2500" data-name="長方形 2500" width="3" height="3" transform="translate(595 1154)" fill="#17b911"/>
      <rect id="長方形_2501" data-name="長方形 2501" width="3" height="3" transform="translate(601 1154)" fill="#17b911"/>
      <rect id="長方形_2502" data-name="長方形 2502" width="3" height="3" transform="translate(604 1154)" fill="#17b911"/>
      <rect id="長方形_2503" data-name="長方形 2503" width="3" height="3" transform="translate(607 1154)" fill="#17b911"/>
      <rect id="長方形_2504" data-name="長方形 2504" width="3" height="3" transform="translate(613 1154)" fill="#17b911"/>
      <rect id="長方形_2505" data-name="長方形 2505" width="3" height="3" transform="translate(541 1157)" fill="#17b911"/>
      <rect id="長方形_2506" data-name="長方形 2506" width="3" height="3" transform="translate(547 1157)" fill="#17b911"/>
      <rect id="長方形_2507" data-name="長方形 2507" width="3" height="3" transform="translate(550 1157)" fill="#17b911"/>
      <rect id="長方形_2508" data-name="長方形 2508" width="3" height="3" transform="translate(553 1157)" fill="#17b911"/>
      <rect id="長方形_2509" data-name="長方形 2509" width="3" height="3" transform="translate(559 1157)" fill="#17b911"/>
      <rect id="長方形_2510" data-name="長方形 2510" width="3" height="3" transform="translate(568 1157)" fill="#17b911"/>
      <rect id="長方形_2511" data-name="長方形 2511" width="3" height="3" transform="translate(571 1157)" fill="#17b911"/>
      <rect id="長方形_2512" data-name="長方形 2512" width="3" height="3" transform="translate(574 1157)" fill="#17b911"/>
      <rect id="長方形_2513" data-name="長方形 2513" width="3" height="3" transform="translate(577 1157)" fill="#17b911"/>
      <rect id="長方形_2514" data-name="長方形 2514" width="3" height="3" transform="translate(583 1157)" fill="#17b911"/>
      <rect id="長方形_2515" data-name="長方形 2515" width="3" height="3" transform="translate(586 1157)" fill="#17b911"/>
      <rect id="長方形_2516" data-name="長方形 2516" width="3" height="3" transform="translate(595 1157)" fill="#17b911"/>
      <rect id="長方形_2517" data-name="長方形 2517" width="3" height="3" transform="translate(601 1157)" fill="#17b911"/>
      <rect id="長方形_2518" data-name="長方形 2518" width="3" height="3" transform="translate(604 1157)" fill="#17b911"/>
      <rect id="長方形_2519" data-name="長方形 2519" width="3" height="3" transform="translate(607 1157)" fill="#17b911"/>
      <rect id="長方形_2520" data-name="長方形 2520" width="3" height="3" transform="translate(613 1157)" fill="#17b911"/>
      <rect id="長方形_2521" data-name="長方形 2521" width="3" height="3" transform="translate(541 1160)" fill="#17b911"/>
      <rect id="長方形_2522" data-name="長方形 2522" width="3" height="3" transform="translate(559 1160)" fill="#17b911"/>
      <rect id="長方形_2523" data-name="長方形 2523" width="3" height="3" transform="translate(565 1160)" fill="#17b911"/>
      <rect id="長方形_2524" data-name="長方形 2524" width="3" height="3" transform="translate(577 1160)" fill="#17b911"/>
      <rect id="長方形_2525" data-name="長方形 2525" width="3" height="3" transform="translate(580 1160)" fill="#17b911"/>
      <rect id="長方形_2526" data-name="長方形 2526" width="3" height="3" transform="translate(583 1160)" fill="#17b911"/>
      <rect id="長方形_2527" data-name="長方形 2527" width="3" height="3" transform="translate(589 1160)" fill="#17b911"/>
      <rect id="長方形_2528" data-name="長方形 2528" width="3" height="3" transform="translate(595 1160)" fill="#17b911"/>
      <rect id="長方形_2529" data-name="長方形 2529" width="3" height="3" transform="translate(613 1160)" fill="#17b911"/>
      <rect id="長方形_2530" data-name="長方形 2530" width="3" height="3" transform="translate(541 1163)" fill="#17b911"/>
      <rect id="長方形_2531" data-name="長方形 2531" width="3" height="3" transform="translate(544 1163)" fill="#17b911"/>
      <rect id="長方形_2532" data-name="長方形 2532" width="3" height="3" transform="translate(547 1163)" fill="#17b911"/>
      <rect id="長方形_2533" data-name="長方形 2533" width="3" height="3" transform="translate(550 1163)" fill="#17b911"/>
      <rect id="長方形_2534" data-name="長方形 2534" width="3" height="3" transform="translate(553 1163)" fill="#17b911"/>
      <rect id="長方形_2535" data-name="長方形 2535" width="3" height="3" transform="translate(556 1163)" fill="#17b911"/>
      <rect id="長方形_2536" data-name="長方形 2536" width="3" height="3" transform="translate(559 1163)" fill="#17b911"/>
      <rect id="長方形_2537" data-name="長方形 2537" width="3" height="3" transform="translate(565 1163)" fill="#17b911"/>
      <rect id="長方形_2538" data-name="長方形 2538" width="3" height="3" transform="translate(571 1163)" fill="#17b911"/>
      <rect id="長方形_2539" data-name="長方形 2539" width="3" height="3" transform="translate(577 1163)" fill="#17b911"/>
      <rect id="長方形_2540" data-name="長方形 2540" width="3" height="3" transform="translate(583 1163)" fill="#17b911"/>
      <rect id="長方形_2541" data-name="長方形 2541" width="3" height="3" transform="translate(589 1163)" fill="#17b911"/>
      <rect id="長方形_2542" data-name="長方形 2542" width="3" height="3" transform="translate(595 1163)" fill="#17b911"/>
      <rect id="長方形_2543" data-name="長方形 2543" width="3" height="3" transform="translate(598 1163)" fill="#17b911"/>
      <rect id="長方形_2544" data-name="長方形 2544" width="3" height="3" transform="translate(601 1163)" fill="#17b911"/>
      <rect id="長方形_2545" data-name="長方形 2545" width="3" height="3" transform="translate(604 1163)" fill="#17b911"/>
      <rect id="長方形_2546" data-name="長方形 2546" width="3" height="3" transform="translate(607 1163)" fill="#17b911"/>
      <rect id="長方形_2547" data-name="長方形 2547" width="3" height="3" transform="translate(610 1163)" fill="#17b911"/>
      <rect id="長方形_2548" data-name="長方形 2548" width="3" height="3" transform="translate(613 1163)" fill="#17b911"/>
      <rect id="長方形_2549" data-name="長方形 2549" width="3" height="3" transform="translate(574 1166)" fill="#17b911"/>
      <rect id="長方形_2550" data-name="長方形 2550" width="3" height="3" transform="translate(580 1166)" fill="#17b911"/>
      <rect id="長方形_2551" data-name="長方形 2551" width="3" height="3" transform="translate(589 1166)" fill="#17b911"/>
      <rect id="長方形_2552" data-name="長方形 2552" width="3" height="3" transform="translate(541 1169)" fill="#17b911"/>
      <rect id="長方形_2553" data-name="長方形 2553" width="3" height="3" transform="translate(544 1169)" fill="#17b911"/>
      <rect id="長方形_2554" data-name="長方形 2554" width="3" height="3" transform="translate(547 1169)" fill="#17b911"/>
      <rect id="長方形_2555" data-name="長方形 2555" width="3" height="3" transform="translate(550 1169)" fill="#17b911"/>
      <rect id="長方形_2556" data-name="長方形 2556" width="3" height="3" transform="translate(553 1169)" fill="#17b911"/>
      <rect id="長方形_2557" data-name="長方形 2557" width="3" height="3" transform="translate(559 1169)" fill="#17b911"/>
      <rect id="長方形_2558" data-name="長方形 2558" width="3" height="3" transform="translate(562 1169)" fill="#17b911"/>
      <rect id="長方形_2559" data-name="長方形 2559" width="3" height="3" transform="translate(565 1169)" fill="#17b911"/>
      <rect id="長方形_2560" data-name="長方形 2560" width="3" height="3" transform="translate(571 1169)" fill="#17b911"/>
      <rect id="長方形_2561" data-name="長方形 2561" width="3" height="3" transform="translate(577 1169)" fill="#17b911"/>
      <rect id="長方形_2562" data-name="長方形 2562" width="3" height="3" transform="translate(580 1169)" fill="#17b911"/>
      <rect id="長方形_2563" data-name="長方形 2563" width="3" height="3" transform="translate(586 1169)" fill="#17b911"/>
      <rect id="長方形_2564" data-name="長方形 2564" width="3" height="3" transform="translate(592 1169)" fill="#17b911"/>
      <rect id="長方形_2565" data-name="長方形 2565" width="3" height="3" transform="translate(598 1169)" fill="#17b911"/>
      <rect id="長方形_2566" data-name="長方形 2566" width="3" height="3" transform="translate(604 1169)" fill="#17b911"/>
      <rect id="長方形_2567" data-name="長方形 2567" width="3" height="3" transform="translate(610 1169)" fill="#17b911"/>
      <rect id="長方形_2568" data-name="長方形 2568" width="3" height="3" transform="translate(541 1172)" fill="#17b911"/>
      <rect id="長方形_2569" data-name="長方形 2569" width="3" height="3" transform="translate(550 1172)" fill="#17b911"/>
      <rect id="長方形_2570" data-name="長方形 2570" width="3" height="3" transform="translate(553 1172)" fill="#17b911"/>
      <rect id="長方形_2571" data-name="長方形 2571" width="3" height="3" transform="translate(565 1172)" fill="#17b911"/>
      <rect id="長方形_2572" data-name="長方形 2572" width="3" height="3" transform="translate(568 1172)" fill="#17b911"/>
      <rect id="長方形_2573" data-name="長方形 2573" width="3" height="3" transform="translate(571 1172)" fill="#17b911"/>
      <rect id="長方形_2574" data-name="長方形 2574" width="3" height="3" transform="translate(574 1172)" fill="#17b911"/>
      <rect id="長方形_2575" data-name="長方形 2575" width="3" height="3" transform="translate(583 1172)" fill="#17b911"/>
      <rect id="長方形_2576" data-name="長方形 2576" width="3" height="3" transform="translate(592 1172)" fill="#17b911"/>
      <rect id="長方形_2577" data-name="長方形 2577" width="3" height="3" transform="translate(598 1172)" fill="#17b911"/>
      <rect id="長方形_2578" data-name="長方形 2578" width="3" height="3" transform="translate(601 1172)" fill="#17b911"/>
      <rect id="長方形_2579" data-name="長方形 2579" width="3" height="3" transform="translate(613 1172)" fill="#17b911"/>
      <rect id="長方形_2580" data-name="長方形 2580" width="3" height="3" transform="translate(541 1175)" fill="#17b911"/>
      <rect id="長方形_2581" data-name="長方形 2581" width="3" height="3" transform="translate(547 1175)" fill="#17b911"/>
      <rect id="長方形_2582" data-name="長方形 2582" width="3" height="3" transform="translate(553 1175)" fill="#17b911"/>
      <rect id="長方形_2583" data-name="長方形 2583" width="3" height="3" transform="translate(556 1175)" fill="#17b911"/>
      <rect id="長方形_2584" data-name="長方形 2584" width="3" height="3" transform="translate(559 1175)" fill="#17b911"/>
      <rect id="長方形_2585" data-name="長方形 2585" width="3" height="3" transform="translate(562 1175)" fill="#17b911"/>
      <rect id="長方形_2586" data-name="長方形 2586" width="3" height="3" transform="translate(565 1175)" fill="#17b911"/>
      <rect id="長方形_2587" data-name="長方形 2587" width="3" height="3" transform="translate(568 1175)" fill="#17b911"/>
      <rect id="長方形_2588" data-name="長方形 2588" width="3" height="3" transform="translate(574 1175)" fill="#17b911"/>
      <rect id="長方形_2589" data-name="長方形 2589" width="3" height="3" transform="translate(577 1175)" fill="#17b911"/>
      <rect id="長方形_2590" data-name="長方形 2590" width="3" height="3" transform="translate(580 1175)" fill="#17b911"/>
      <rect id="長方形_2591" data-name="長方形 2591" width="3" height="3" transform="translate(583 1175)" fill="#17b911"/>
      <rect id="長方形_2592" data-name="長方形 2592" width="3" height="3" transform="translate(586 1175)" fill="#17b911"/>
      <rect id="長方形_2593" data-name="長方形 2593" width="3" height="3" transform="translate(589 1175)" fill="#17b911"/>
      <rect id="長方形_2594" data-name="長方形 2594" width="3" height="3" transform="translate(592 1175)" fill="#17b911"/>
      <rect id="長方形_2595" data-name="長方形 2595" width="3" height="3" transform="translate(595 1175)" fill="#17b911"/>
      <rect id="長方形_2596" data-name="長方形 2596" width="3" height="3" transform="translate(601 1175)" fill="#17b911"/>
      <rect id="長方形_2597" data-name="長方形 2597" width="3" height="3" transform="translate(607 1175)" fill="#17b911"/>
      <rect id="長方形_2598" data-name="長方形 2598" width="3" height="3" transform="translate(541 1178)" fill="#17b911"/>
      <rect id="長方形_2599" data-name="長方形 2599" width="3" height="3" transform="translate(544 1178)" fill="#17b911"/>
      <rect id="長方形_2600" data-name="長方形 2600" width="3" height="3" transform="translate(547 1178)" fill="#17b911"/>
      <rect id="長方形_2601" data-name="長方形 2601" width="3" height="3" transform="translate(550 1178)" fill="#17b911"/>
      <rect id="長方形_2602" data-name="長方形 2602" width="3" height="3" transform="translate(556 1178)" fill="#17b911"/>
      <rect id="長方形_2603" data-name="長方形 2603" width="3" height="3" transform="translate(562 1178)" fill="#17b911"/>
      <rect id="長方形_2604" data-name="長方形 2604" width="3" height="3" transform="translate(568 1178)" fill="#17b911"/>
      <rect id="長方形_2605" data-name="長方形 2605" width="3" height="3" transform="translate(574 1178)" fill="#17b911"/>
      <rect id="長方形_2606" data-name="長方形 2606" width="3" height="3" transform="translate(577 1178)" fill="#17b911"/>
      <rect id="長方形_2607" data-name="長方形 2607" width="3" height="3" transform="translate(589 1178)" fill="#17b911"/>
      <rect id="長方形_2608" data-name="長方形 2608" width="3" height="3" transform="translate(541 1181)" fill="#17b911"/>
      <rect id="長方形_2609" data-name="長方形 2609" width="3" height="3" transform="translate(547 1181)" fill="#17b911"/>
      <rect id="長方形_2610" data-name="長方形 2610" width="3" height="3" transform="translate(550 1181)" fill="#17b911"/>
      <rect id="長方形_2611" data-name="長方形 2611" width="3" height="3" transform="translate(553 1181)" fill="#17b911"/>
      <rect id="長方形_2612" data-name="長方形 2612" width="3" height="3" transform="translate(559 1181)" fill="#17b911"/>
      <rect id="長方形_2613" data-name="長方形 2613" width="3" height="3" transform="translate(562 1181)" fill="#17b911"/>
      <rect id="長方形_2614" data-name="長方形 2614" width="3" height="3" transform="translate(568 1181)" fill="#17b911"/>
      <rect id="長方形_2615" data-name="長方形 2615" width="3" height="3" transform="translate(577 1181)" fill="#17b911"/>
      <rect id="長方形_2616" data-name="長方形 2616" width="3" height="3" transform="translate(586 1181)" fill="#17b911"/>
      <rect id="長方形_2617" data-name="長方形 2617" width="3" height="3" transform="translate(589 1181)" fill="#17b911"/>
      <rect id="長方形_2618" data-name="長方形 2618" width="3" height="3" transform="translate(592 1181)" fill="#17b911"/>
      <rect id="長方形_2619" data-name="長方形 2619" width="3" height="3" transform="translate(595 1181)" fill="#17b911"/>
      <rect id="長方形_2620" data-name="長方形 2620" width="3" height="3" transform="translate(598 1181)" fill="#17b911"/>
      <rect id="長方形_2621" data-name="長方形 2621" width="3" height="3" transform="translate(601 1181)" fill="#17b911"/>
      <rect id="長方形_2622" data-name="長方形 2622" width="3" height="3" transform="translate(604 1181)" fill="#17b911"/>
      <rect id="長方形_2623" data-name="長方形 2623" width="3" height="3" transform="translate(610 1181)" fill="#17b911"/>
      <rect id="長方形_2624" data-name="長方形 2624" width="3" height="3" transform="translate(613 1181)" fill="#17b911"/>
      <rect id="長方形_2625" data-name="長方形 2625" width="3" height="3" transform="translate(541 1184)" fill="#17b911"/>
      <rect id="長方形_2626" data-name="長方形 2626" width="3" height="3" transform="translate(544 1184)" fill="#17b911"/>
      <rect id="長方形_2627" data-name="長方形 2627" width="3" height="3" transform="translate(547 1184)" fill="#17b911"/>
      <rect id="長方形_2628" data-name="長方形 2628" width="3" height="3" transform="translate(550 1184)" fill="#17b911"/>
      <rect id="長方形_2629" data-name="長方形 2629" width="3" height="3" transform="translate(562 1184)" fill="#17b911"/>
      <rect id="長方形_2630" data-name="長方形 2630" width="3" height="3" transform="translate(568 1184)" fill="#17b911"/>
      <rect id="長方形_2631" data-name="長方形 2631" width="3" height="3" transform="translate(574 1184)" fill="#17b911"/>
      <rect id="長方形_2632" data-name="長方形 2632" width="3" height="3" transform="translate(583 1184)" fill="#17b911"/>
      <rect id="長方形_2633" data-name="長方形 2633" width="3" height="3" transform="translate(586 1184)" fill="#17b911"/>
      <rect id="長方形_2634" data-name="長方形 2634" width="3" height="3" transform="translate(589 1184)" fill="#17b911"/>
      <rect id="長方形_2635" data-name="長方形 2635" width="3" height="3" transform="translate(592 1184)" fill="#17b911"/>
      <rect id="長方形_2636" data-name="長方形 2636" width="3" height="3" transform="translate(598 1184)" fill="#17b911"/>
      <rect id="長方形_2637" data-name="長方形 2637" width="3" height="3" transform="translate(601 1184)" fill="#17b911"/>
      <rect id="長方形_2638" data-name="長方形 2638" width="3" height="3" transform="translate(541 1187)" fill="#17b911"/>
      <rect id="長方形_2639" data-name="長方形 2639" width="3" height="3" transform="translate(547 1187)" fill="#17b911"/>
      <rect id="長方形_2640" data-name="長方形 2640" width="3" height="3" transform="translate(550 1187)" fill="#17b911"/>
      <rect id="長方形_2641" data-name="長方形 2641" width="3" height="3" transform="translate(553 1187)" fill="#17b911"/>
      <rect id="長方形_2642" data-name="長方形 2642" width="3" height="3" transform="translate(556 1187)" fill="#17b911"/>
      <rect id="長方形_2643" data-name="長方形 2643" width="3" height="3" transform="translate(559 1187)" fill="#17b911"/>
      <rect id="長方形_2644" data-name="長方形 2644" width="3" height="3" transform="translate(574 1187)" fill="#17b911"/>
      <rect id="長方形_2645" data-name="長方形 2645" width="3" height="3" transform="translate(577 1187)" fill="#17b911"/>
      <rect id="長方形_2646" data-name="長方形 2646" width="3" height="3" transform="translate(580 1187)" fill="#17b911"/>
      <rect id="長方形_2647" data-name="長方形 2647" width="3" height="3" transform="translate(583 1187)" fill="#17b911"/>
      <rect id="長方形_2648" data-name="長方形 2648" width="3" height="3" transform="translate(586 1187)" fill="#17b911"/>
      <rect id="長方形_2649" data-name="長方形 2649" width="3" height="3" transform="translate(592 1187)" fill="#17b911"/>
      <rect id="長方形_2650" data-name="長方形 2650" width="3" height="3" transform="translate(595 1187)" fill="#17b911"/>
      <rect id="長方形_2651" data-name="長方形 2651" width="3" height="3" transform="translate(601 1187)" fill="#17b911"/>
      <rect id="長方形_2652" data-name="長方形 2652" width="3" height="3" transform="translate(607 1187)" fill="#17b911"/>
      <rect id="長方形_2653" data-name="長方形 2653" width="3" height="3" transform="translate(610 1187)" fill="#17b911"/>
      <rect id="長方形_2654" data-name="長方形 2654" width="3" height="3" transform="translate(541 1190)" fill="#17b911"/>
      <rect id="長方形_2655" data-name="長方形 2655" width="3" height="3" transform="translate(547 1190)" fill="#17b911"/>
      <rect id="長方形_2656" data-name="長方形 2656" width="3" height="3" transform="translate(550 1190)" fill="#17b911"/>
      <rect id="長方形_2657" data-name="長方形 2657" width="3" height="3" transform="translate(553 1190)" fill="#17b911"/>
      <rect id="長方形_2658" data-name="長方形 2658" width="3" height="3" transform="translate(556 1190)" fill="#17b911"/>
      <rect id="長方形_2659" data-name="長方形 2659" width="3" height="3" transform="translate(562 1190)" fill="#17b911"/>
      <rect id="長方形_2660" data-name="長方形 2660" width="3" height="3" transform="translate(571 1190)" fill="#17b911"/>
      <rect id="長方形_2661" data-name="長方形 2661" width="3" height="3" transform="translate(574 1190)" fill="#17b911"/>
      <rect id="長方形_2662" data-name="長方形 2662" width="3" height="3" transform="translate(580 1190)" fill="#17b911"/>
      <rect id="長方形_2663" data-name="長方形 2663" width="3" height="3" transform="translate(589 1190)" fill="#17b911"/>
      <rect id="長方形_2664" data-name="長方形 2664" width="3" height="3" transform="translate(610 1190)" fill="#17b911"/>
      <rect id="長方形_2665" data-name="長方形 2665" width="3" height="3" transform="translate(613 1190)" fill="#17b911"/>
      <rect id="長方形_2666" data-name="長方形 2666" width="3" height="3" transform="translate(541 1193)" fill="#17b911"/>
      <rect id="長方形_2667" data-name="長方形 2667" width="3" height="3" transform="translate(550 1193)" fill="#17b911"/>
      <rect id="長方形_2668" data-name="長方形 2668" width="3" height="3" transform="translate(559 1193)" fill="#17b911"/>
      <rect id="長方形_2669" data-name="長方形 2669" width="3" height="3" transform="translate(562 1193)" fill="#17b911"/>
      <rect id="長方形_2670" data-name="長方形 2670" width="3" height="3" transform="translate(565 1193)" fill="#17b911"/>
      <rect id="長方形_2671" data-name="長方形 2671" width="3" height="3" transform="translate(568 1193)" fill="#17b911"/>
      <rect id="長方形_2672" data-name="長方形 2672" width="3" height="3" transform="translate(571 1193)" fill="#17b911"/>
      <rect id="長方形_2673" data-name="長方形 2673" width="3" height="3" transform="translate(583 1193)" fill="#17b911"/>
      <rect id="長方形_2674" data-name="長方形 2674" width="3" height="3" transform="translate(586 1193)" fill="#17b911"/>
      <rect id="長方形_2675" data-name="長方形 2675" width="3" height="3" transform="translate(589 1193)" fill="#17b911"/>
      <rect id="長方形_2676" data-name="長方形 2676" width="3" height="3" transform="translate(592 1193)" fill="#17b911"/>
      <rect id="長方形_2677" data-name="長方形 2677" width="3" height="3" transform="translate(595 1193)" fill="#17b911"/>
      <rect id="長方形_2678" data-name="長方形 2678" width="3" height="3" transform="translate(598 1193)" fill="#17b911"/>
      <rect id="長方形_2679" data-name="長方形 2679" width="3" height="3" transform="translate(601 1193)" fill="#17b911"/>
      <rect id="長方形_2680" data-name="長方形 2680" width="3" height="3" transform="translate(604 1193)" fill="#17b911"/>
      <rect id="長方形_2681" data-name="長方形 2681" width="3" height="3" transform="translate(613 1193)" fill="#17b911"/>
      <rect id="長方形_2682" data-name="長方形 2682" width="3" height="3" transform="translate(565 1196)" fill="#17b911"/>
      <rect id="長方形_2683" data-name="長方形 2683" width="3" height="3" transform="translate(568 1196)" fill="#17b911"/>
      <rect id="長方形_2684" data-name="長方形 2684" width="3" height="3" transform="translate(577 1196)" fill="#17b911"/>
      <rect id="長方形_2685" data-name="長方形 2685" width="3" height="3" transform="translate(583 1196)" fill="#17b911"/>
      <rect id="長方形_2686" data-name="長方形 2686" width="3" height="3" transform="translate(586 1196)" fill="#17b911"/>
      <rect id="長方形_2687" data-name="長方形 2687" width="3" height="3" transform="translate(589 1196)" fill="#17b911"/>
      <rect id="長方形_2688" data-name="長方形 2688" width="3" height="3" transform="translate(601 1196)" fill="#17b911"/>
      <rect id="長方形_2689" data-name="長方形 2689" width="3" height="3" transform="translate(613 1196)" fill="#17b911"/>
      <rect id="長方形_2690" data-name="長方形 2690" width="3" height="3" transform="translate(541 1199)" fill="#17b911"/>
      <rect id="長方形_2691" data-name="長方形 2691" width="3" height="3" transform="translate(544 1199)" fill="#17b911"/>
      <rect id="長方形_2692" data-name="長方形 2692" width="3" height="3" transform="translate(547 1199)" fill="#17b911"/>
      <rect id="長方形_2693" data-name="長方形 2693" width="3" height="3" transform="translate(550 1199)" fill="#17b911"/>
      <rect id="長方形_2694" data-name="長方形 2694" width="3" height="3" transform="translate(553 1199)" fill="#17b911"/>
      <rect id="長方形_2695" data-name="長方形 2695" width="3" height="3" transform="translate(556 1199)" fill="#17b911"/>
      <rect id="長方形_2696" data-name="長方形 2696" width="3" height="3" transform="translate(559 1199)" fill="#17b911"/>
      <rect id="長方形_2697" data-name="長方形 2697" width="3" height="3" transform="translate(565 1199)" fill="#17b911"/>
      <rect id="長方形_2698" data-name="長方形 2698" width="3" height="3" transform="translate(568 1199)" fill="#17b911"/>
      <rect id="長方形_2699" data-name="長方形 2699" width="3" height="3" transform="translate(577 1199)" fill="#17b911"/>
      <rect id="長方形_2700" data-name="長方形 2700" width="3" height="3" transform="translate(580 1199)" fill="#17b911"/>
      <rect id="長方形_2701" data-name="長方形 2701" width="3" height="3" transform="translate(583 1199)" fill="#17b911"/>
      <rect id="長方形_2702" data-name="長方形 2702" width="3" height="3" transform="translate(586 1199)" fill="#17b911"/>
      <rect id="長方形_2703" data-name="長方形 2703" width="3" height="3" transform="translate(589 1199)" fill="#17b911"/>
      <rect id="長方形_2704" data-name="長方形 2704" width="3" height="3" transform="translate(595 1199)" fill="#17b911"/>
      <rect id="長方形_2705" data-name="長方形 2705" width="3" height="3" transform="translate(601 1199)" fill="#17b911"/>
      <rect id="長方形_2706" data-name="長方形 2706" width="3" height="3" transform="translate(607 1199)" fill="#17b911"/>
      <rect id="長方形_2707" data-name="長方形 2707" width="3" height="3" transform="translate(610 1199)" fill="#17b911"/>
      <rect id="長方形_2708" data-name="長方形 2708" width="3" height="3" transform="translate(613 1199)" fill="#17b911"/>
      <rect id="長方形_2709" data-name="長方形 2709" width="3" height="3" transform="translate(541 1202)" fill="#17b911"/>
      <rect id="長方形_2710" data-name="長方形 2710" width="3" height="3" transform="translate(559 1202)" fill="#17b911"/>
      <rect id="長方形_2711" data-name="長方形 2711" width="3" height="3" transform="translate(568 1202)" fill="#17b911"/>
      <rect id="長方形_2712" data-name="長方形 2712" width="3" height="3" transform="translate(571 1202)" fill="#17b911"/>
      <rect id="長方形_2713" data-name="長方形 2713" width="3" height="3" transform="translate(574 1202)" fill="#17b911"/>
      <rect id="長方形_2714" data-name="長方形 2714" width="3" height="3" transform="translate(589 1202)" fill="#17b911"/>
      <rect id="長方形_2715" data-name="長方形 2715" width="3" height="3" transform="translate(601 1202)" fill="#17b911"/>
      <rect id="長方形_2716" data-name="長方形 2716" width="3" height="3" transform="translate(604 1202)" fill="#17b911"/>
      <rect id="長方形_2717" data-name="長方形 2717" width="3" height="3" transform="translate(541 1205)" fill="#17b911"/>
      <rect id="長方形_2718" data-name="長方形 2718" width="3" height="3" transform="translate(547 1205)" fill="#17b911"/>
      <rect id="長方形_2719" data-name="長方形 2719" width="3" height="3" transform="translate(550 1205)" fill="#17b911"/>
      <rect id="長方形_2720" data-name="長方形 2720" width="3" height="3" transform="translate(553 1205)" fill="#17b911"/>
      <rect id="長方形_2721" data-name="長方形 2721" width="3" height="3" transform="translate(559 1205)" fill="#17b911"/>
      <rect id="長方形_2722" data-name="長方形 2722" width="3" height="3" transform="translate(565 1205)" fill="#17b911"/>
      <rect id="長方形_2723" data-name="長方形 2723" width="3" height="3" transform="translate(577 1205)" fill="#17b911"/>
      <rect id="長方形_2724" data-name="長方形 2724" width="3" height="3" transform="translate(583 1205)" fill="#17b911"/>
      <rect id="長方形_2725" data-name="長方形 2725" width="3" height="3" transform="translate(589 1205)" fill="#17b911"/>
      <rect id="長方形_2726" data-name="長方形 2726" width="3" height="3" transform="translate(592 1205)" fill="#17b911"/>
      <rect id="長方形_2727" data-name="長方形 2727" width="3" height="3" transform="translate(595 1205)" fill="#17b911"/>
      <rect id="長方形_2728" data-name="長方形 2728" width="3" height="3" transform="translate(598 1205)" fill="#17b911"/>
      <rect id="長方形_2729" data-name="長方形 2729" width="3" height="3" transform="translate(601 1205)" fill="#17b911"/>
      <rect id="長方形_2730" data-name="長方形 2730" width="3" height="3" transform="translate(604 1205)" fill="#17b911"/>
      <rect id="長方形_2731" data-name="長方形 2731" width="3" height="3" transform="translate(541 1208)" fill="#17b911"/>
      <rect id="長方形_2732" data-name="長方形 2732" width="3" height="3" transform="translate(547 1208)" fill="#17b911"/>
      <rect id="長方形_2733" data-name="長方形 2733" width="3" height="3" transform="translate(550 1208)" fill="#17b911"/>
      <rect id="長方形_2734" data-name="長方形 2734" width="3" height="3" transform="translate(553 1208)" fill="#17b911"/>
      <rect id="長方形_2735" data-name="長方形 2735" width="3" height="3" transform="translate(559 1208)" fill="#17b911"/>
      <rect id="長方形_2736" data-name="長方形 2736" width="3" height="3" transform="translate(565 1208)" fill="#17b911"/>
      <rect id="長方形_2737" data-name="長方形 2737" width="3" height="3" transform="translate(571 1208)" fill="#17b911"/>
      <rect id="長方形_2738" data-name="長方形 2738" width="3" height="3" transform="translate(577 1208)" fill="#17b911"/>
      <rect id="長方形_2739" data-name="長方形 2739" width="3" height="3" transform="translate(583 1208)" fill="#17b911"/>
      <rect id="長方形_2740" data-name="長方形 2740" width="3" height="3" transform="translate(586 1208)" fill="#17b911"/>
      <rect id="長方形_2741" data-name="長方形 2741" width="3" height="3" transform="translate(589 1208)" fill="#17b911"/>
      <rect id="長方形_2742" data-name="長方形 2742" width="3" height="3" transform="translate(595 1208)" fill="#17b911"/>
      <rect id="長方形_2743" data-name="長方形 2743" width="3" height="3" transform="translate(601 1208)" fill="#17b911"/>
      <rect id="長方形_2744" data-name="長方形 2744" width="3" height="3" transform="translate(610 1208)" fill="#17b911"/>
      <rect id="長方形_2745" data-name="長方形 2745" width="3" height="3" transform="translate(613 1208)" fill="#17b911"/>
      <rect id="長方形_2746" data-name="長方形 2746" width="3" height="3" transform="translate(541 1211)" fill="#17b911"/>
      <rect id="長方形_2747" data-name="長方形 2747" width="3" height="3" transform="translate(547 1211)" fill="#17b911"/>
      <rect id="長方形_2748" data-name="長方形 2748" width="3" height="3" transform="translate(550 1211)" fill="#17b911"/>
      <rect id="長方形_2749" data-name="長方形 2749" width="3" height="3" transform="translate(553 1211)" fill="#17b911"/>
      <rect id="長方形_2750" data-name="長方形 2750" width="3" height="3" transform="translate(559 1211)" fill="#17b911"/>
      <rect id="長方形_2751" data-name="長方形 2751" width="3" height="3" transform="translate(565 1211)" fill="#17b911"/>
      <rect id="長方形_2752" data-name="長方形 2752" width="3" height="3" transform="translate(571 1211)" fill="#17b911"/>
      <rect id="長方形_2753" data-name="長方形 2753" width="3" height="3" transform="translate(574 1211)" fill="#17b911"/>
      <rect id="長方形_2754" data-name="長方形 2754" width="3" height="3" transform="translate(577 1211)" fill="#17b911"/>
      <rect id="長方形_2755" data-name="長方形 2755" width="3" height="3" transform="translate(580 1211)" fill="#17b911"/>
      <rect id="長方形_2756" data-name="長方形 2756" width="3" height="3" transform="translate(583 1211)" fill="#17b911"/>
      <rect id="長方形_2757" data-name="長方形 2757" width="3" height="3" transform="translate(592 1211)" fill="#17b911"/>
      <rect id="長方形_2758" data-name="長方形 2758" width="3" height="3" transform="translate(595 1211)" fill="#17b911"/>
      <rect id="長方形_2759" data-name="長方形 2759" width="3" height="3" transform="translate(601 1211)" fill="#17b911"/>
      <rect id="長方形_2760" data-name="長方形 2760" width="3" height="3" transform="translate(607 1211)" fill="#17b911"/>
      <rect id="長方形_2761" data-name="長方形 2761" width="3" height="3" transform="translate(613 1211)" fill="#17b911"/>
      <rect id="長方形_2762" data-name="長方形 2762" width="3" height="3" transform="translate(541 1214)" fill="#17b911"/>
      <rect id="長方形_2763" data-name="長方形 2763" width="3" height="3" transform="translate(559 1214)" fill="#17b911"/>
      <rect id="長方形_2764" data-name="長方形 2764" width="3" height="3" transform="translate(565 1214)" fill="#17b911"/>
      <rect id="長方形_2765" data-name="長方形 2765" width="3" height="3" transform="translate(574 1214)" fill="#17b911"/>
      <rect id="長方形_2766" data-name="長方形 2766" width="3" height="3" transform="translate(586 1214)" fill="#17b911"/>
      <rect id="長方形_2767" data-name="長方形 2767" width="3" height="3" transform="translate(592 1214)" fill="#17b911"/>
      <rect id="長方形_2768" data-name="長方形 2768" width="3" height="3" transform="translate(595 1214)" fill="#17b911"/>
      <rect id="長方形_2769" data-name="長方形 2769" width="3" height="3" transform="translate(598 1214)" fill="#17b911"/>
      <rect id="長方形_2770" data-name="長方形 2770" width="3" height="3" transform="translate(601 1214)" fill="#17b911"/>
      <rect id="長方形_2771" data-name="長方形 2771" width="3" height="3" transform="translate(604 1214)" fill="#17b911"/>
      <rect id="長方形_2772" data-name="長方形 2772" width="3" height="3" transform="translate(610 1214)" fill="#17b911"/>
      <rect id="長方形_2773" data-name="長方形 2773" width="3" height="3" transform="translate(541 1217)" fill="#17b911"/>
      <rect id="長方形_2774" data-name="長方形 2774" width="3" height="3" transform="translate(544 1217)" fill="#17b911"/>
      <rect id="長方形_2775" data-name="長方形 2775" width="3" height="3" transform="translate(547 1217)" fill="#17b911"/>
      <rect id="長方形_2776" data-name="長方形 2776" width="3" height="3" transform="translate(550 1217)" fill="#17b911"/>
      <rect id="長方形_2777" data-name="長方形 2777" width="3" height="3" transform="translate(553 1217)" fill="#17b911"/>
      <rect id="長方形_2778" data-name="長方形 2778" width="3" height="3" transform="translate(556 1217)" fill="#17b911"/>
      <rect id="長方形_2779" data-name="長方形 2779" width="3" height="3" transform="translate(559 1217)" fill="#17b911"/>
      <rect id="長方形_2780" data-name="長方形 2780" width="3" height="3" transform="translate(565 1217)" fill="#17b911"/>
      <rect id="長方形_2781" data-name="長方形 2781" width="3" height="3" transform="translate(568 1217)" fill="#17b911"/>
      <rect id="長方形_2782" data-name="長方形 2782" width="3" height="3" transform="translate(571 1217)" fill="#17b911"/>
      <rect id="長方形_2783" data-name="長方形 2783" width="3" height="3" transform="translate(580 1217)" fill="#17b911"/>
      <rect id="長方形_2784" data-name="長方形 2784" width="3" height="3" transform="translate(589 1217)" fill="#17b911"/>
      <rect id="長方形_2785" data-name="長方形 2785" width="3" height="3" transform="translate(607 1217)" fill="#17b911"/>
      <rect id="長方形_2786" data-name="長方形 2786" width="3" height="3" transform="translate(610 1217)" fill="#17b911"/>
      <rect id="長方形_2787" data-name="長方形 2787" width="3" height="3" transform="translate(613 1217)" fill="#17b911"/>
    </g>
  </g>
</svg>
