<?xml version="1.0"?>
<svg xmlns="http://www.w3.org/2000/svg" xmlns:xlink="http://www.w3.org/1999/xlink" version="1.1" width="70px" height="70px" viewBox="0 0 70 70"><defs><rect id="block" width="2" height="2" fill="#000000" fill-opacity="0.99212598425197"/></defs><rect x="0" y="0" width="70" height="70" fill="#ffffff" fill-opacity="0.99212598425197"/><use x="10" y="10" xlink:href="#block"/><use x="12" y="10" xlink:href="#block"/><use x="14" y="10" xlink:href="#block"/><use x="16" y="10" xlink:href="#block"/><use x="18" y="10" xlink:href="#block"/><use x="20" y="10" xlink:href="#block"/><use x="22" y="10" xlink:href="#block"/><use x="28" y="10" xlink:href="#block"/><use x="30" y="10" xlink:href="#block"/><use x="32" y="10" xlink:href="#block"/><use x="42" y="10" xlink:href="#block"/><use x="46" y="10" xlink:href="#block"/><use x="48" y="10" xlink:href="#block"/><use x="50" y="10" xlink:href="#block"/><use x="52" y="10" xlink:href="#block"/><use x="54" y="10" xlink:href="#block"/><use x="56" y="10" xlink:href="#block"/><use x="58" y="10" xlink:href="#block"/><use x="10" y="12" xlink:href="#block"/><use x="22" y="12" xlink:href="#block"/><use x="26" y="12" xlink:href="#block"/><use x="30" y="12" xlink:href="#block"/><use x="32" y="12" xlink:href="#block"/><use x="34" y="12" xlink:href="#block"/><use x="36" y="12" xlink:href="#block"/><use x="38" y="12" xlink:href="#block"/><use x="46" y="12" xlink:href="#block"/><use x="58" y="12" xlink:href="#block"/><use x="10" y="14" xlink:href="#block"/><use x="14" y="14" xlink:href="#block"/><use x="16" y="14" xlink:href="#block"/><use x="18" y="14" xlink:href="#block"/><use x="22" y="14" xlink:href="#block"/><use x="32" y="14" xlink:href="#block"/><use x="36" y="14" xlink:href="#block"/><use x="46" y="14" xlink:href="#block"/><use x="50" y="14" xlink:href="#block"/><use x="52" y="14" xlink:href="#block"/><use x="54" y="14" xlink:href="#block"/><use x="58" y="14" xlink:href="#block"/><use x="10" y="16" xlink:href="#block"/><use x="14" y="16" xlink:href="#block"/><use x="16" y="16" xlink:href="#block"/><use x="18" y="16" xlink:href="#block"/><use x="22" y="16" xlink:href="#block"/><use x="26" y="16" xlink:href="#block"/><use x="28" y="16" xlink:href="#block"/><use x="30" y="16" xlink:href="#block"/><use x="36" y="16" xlink:href="#block"/><use x="38" y="16" xlink:href="#block"/><use x="40" y="16" xlink:href="#block"/><use x="42" y="16" xlink:href="#block"/><use x="46" y="16" xlink:href="#block"/><use x="50" y="16" xlink:href="#block"/><use x="52" y="16" xlink:href="#block"/><use x="54" y="16" xlink:href="#block"/><use x="58" y="16" xlink:href="#block"/><use x="10" y="18" xlink:href="#block"/><use x="14" y="18" xlink:href="#block"/><use x="16" y="18" xlink:href="#block"/><use x="18" y="18" xlink:href="#block"/><use x="22" y="18" xlink:href="#block"/><use x="28" y="18" xlink:href="#block"/><use x="30" y="18" xlink:href="#block"/><use x="32" y="18" xlink:href="#block"/><use x="34" y="18" xlink:href="#block"/><use x="38" y="18" xlink:href="#block"/><use x="40" y="18" xlink:href="#block"/><use x="46" y="18" xlink:href="#block"/><use x="50" y="18" xlink:href="#block"/><use x="52" y="18" xlink:href="#block"/><use x="54" y="18" xlink:href="#block"/><use x="58" y="18" xlink:href="#block"/><use x="10" y="20" xlink:href="#block"/><use x="22" y="20" xlink:href="#block"/><use x="26" y="20" xlink:href="#block"/><use x="34" y="20" xlink:href="#block"/><use x="36" y="20" xlink:href="#block"/><use x="38" y="20" xlink:href="#block"/><use x="42" y="20" xlink:href="#block"/><use x="46" y="20" xlink:href="#block"/><use x="58" y="20" xlink:href="#block"/><use x="10" y="22" xlink:href="#block"/><use x="12" y="22" xlink:href="#block"/><use x="14" y="22" xlink:href="#block"/><use x="16" y="22" xlink:href="#block"/><use x="18" y="22" xlink:href="#block"/><use x="20" y="22" xlink:href="#block"/><use x="22" y="22" xlink:href="#block"/><use x="26" y="22" xlink:href="#block"/><use x="30" y="22" xlink:href="#block"/><use x="34" y="22" xlink:href="#block"/><use x="38" y="22" xlink:href="#block"/><use x="42" y="22" xlink:href="#block"/><use x="46" y="22" xlink:href="#block"/><use x="48" y="22" xlink:href="#block"/><use x="50" y="22" xlink:href="#block"/><use x="52" y="22" xlink:href="#block"/><use x="54" y="22" xlink:href="#block"/><use x="56" y="22" xlink:href="#block"/><use x="58" y="22" xlink:href="#block"/><use x="32" y="24" xlink:href="#block"/><use x="36" y="24" xlink:href="#block"/><use x="42" y="24" xlink:href="#block"/><use x="10" y="26" xlink:href="#block"/><use x="12" y="26" xlink:href="#block"/><use x="14" y="26" xlink:href="#block"/><use x="16" y="26" xlink:href="#block"/><use x="18" y="26" xlink:href="#block"/><use x="22" y="26" xlink:href="#block"/><use x="24" y="26" xlink:href="#block"/><use x="26" y="26" xlink:href="#block"/><use x="30" y="26" xlink:href="#block"/><use x="34" y="26" xlink:href="#block"/><use x="36" y="26" xlink:href="#block"/><use x="40" y="26" xlink:href="#block"/><use x="44" y="26" xlink:href="#block"/><use x="48" y="26" xlink:href="#block"/><use x="52" y="26" xlink:href="#block"/><use x="56" y="26" xlink:href="#block"/><use x="10" y="28" xlink:href="#block"/><use x="16" y="28" xlink:href="#block"/><use x="18" y="28" xlink:href="#block"/><use x="26" y="28" xlink:href="#block"/><use x="28" y="28" xlink:href="#block"/><use x="30" y="28" xlink:href="#block"/><use x="32" y="28" xlink:href="#block"/><use x="38" y="28" xlink:href="#block"/><use x="44" y="28" xlink:href="#block"/><use x="48" y="28" xlink:href="#block"/><use x="50" y="28" xlink:href="#block"/><use x="58" y="28" xlink:href="#block"/><use x="10" y="30" xlink:href="#block"/><use x="14" y="30" xlink:href="#block"/><use x="18" y="30" xlink:href="#block"/><use x="20" y="30" xlink:href="#block"/><use x="22" y="30" xlink:href="#block"/><use x="24" y="30" xlink:href="#block"/><use x="26" y="30" xlink:href="#block"/><use x="28" y="30" xlink:href="#block"/><use x="32" y="30" xlink:href="#block"/><use x="34" y="30" xlink:href="#block"/><use x="36" y="30" xlink:href="#block"/><use x="38" y="30" xlink:href="#block"/><use x="40" y="30" xlink:href="#block"/><use x="42" y="30" xlink:href="#block"/><use x="44" y="30" xlink:href="#block"/><use x="46" y="30" xlink:href="#block"/><use x="50" y="30" xlink:href="#block"/><use x="54" y="30" xlink:href="#block"/><use x="10" y="32" xlink:href="#block"/><use x="12" y="32" xlink:href="#block"/><use x="14" y="32" xlink:href="#block"/><use x="16" y="32" xlink:href="#block"/><use x="20" y="32" xlink:href="#block"/><use x="24" y="32" xlink:href="#block"/><use x="28" y="32" xlink:href="#block"/><use x="32" y="32" xlink:href="#block"/><use x="34" y="32" xlink:href="#block"/><use x="42" y="32" xlink:href="#block"/><use x="10" y="34" xlink:href="#block"/><use x="14" y="34" xlink:href="#block"/><use x="16" y="34" xlink:href="#block"/><use x="18" y="34" xlink:href="#block"/><use x="22" y="34" xlink:href="#block"/><use x="24" y="34" xlink:href="#block"/><use x="28" y="34" xlink:href="#block"/><use x="34" y="34" xlink:href="#block"/><use x="40" y="34" xlink:href="#block"/><use x="42" y="34" xlink:href="#block"/><use x="44" y="34" xlink:href="#block"/><use x="46" y="34" xlink:href="#block"/><use x="48" y="34" xlink:href="#block"/><use x="50" y="34" xlink:href="#block"/><use x="52" y="34" xlink:href="#block"/><use x="56" y="34" xlink:href="#block"/><use x="58" y="34" xlink:href="#block"/><use x="10" y="36" xlink:href="#block"/><use x="12" y="36" xlink:href="#block"/><use x="14" y="36" xlink:href="#block"/><use x="16" y="36" xlink:href="#block"/><use x="24" y="36" xlink:href="#block"/><use x="28" y="36" xlink:href="#block"/><use x="32" y="36" xlink:href="#block"/><use x="38" y="36" xlink:href="#block"/><use x="40" y="36" xlink:href="#block"/><use x="42" y="36" xlink:href="#block"/><use x="44" y="36" xlink:href="#block"/><use x="48" y="36" xlink:href="#block"/><use x="50" y="36" xlink:href="#block"/><use x="10" y="38" xlink:href="#block"/><use x="14" y="38" xlink:href="#block"/><use x="16" y="38" xlink:href="#block"/><use x="18" y="38" xlink:href="#block"/><use x="20" y="38" xlink:href="#block"/><use x="22" y="38" xlink:href="#block"/><use x="32" y="38" xlink:href="#block"/><use x="34" y="38" xlink:href="#block"/><use x="36" y="38" xlink:href="#block"/><use x="38" y="38" xlink:href="#block"/><use x="40" y="38" xlink:href="#block"/><use x="44" y="38" xlink:href="#block"/><use x="46" y="38" xlink:href="#block"/><use x="50" y="38" xlink:href="#block"/><use x="54" y="38" xlink:href="#block"/><use x="56" y="38" xlink:href="#block"/><use x="10" y="40" xlink:href="#block"/><use x="14" y="40" xlink:href="#block"/><use x="16" y="40" xlink:href="#block"/><use x="18" y="40" xlink:href="#block"/><use x="20" y="40" xlink:href="#block"/><use x="24" y="40" xlink:href="#block"/><use x="30" y="40" xlink:href="#block"/><use x="32" y="40" xlink:href="#block"/><use x="36" y="40" xlink:href="#block"/><use x="42" y="40" xlink:href="#block"/><use x="56" y="40" xlink:href="#block"/><use x="58" y="40" xlink:href="#block"/><use x="10" y="42" xlink:href="#block"/><use x="16" y="42" xlink:href="#block"/><use x="22" y="42" xlink:href="#block"/><use x="24" y="42" xlink:href="#block"/><use x="26" y="42" xlink:href="#block"/><use x="28" y="42" xlink:href="#block"/><use x="30" y="42" xlink:href="#block"/><use x="38" y="42" xlink:href="#block"/><use x="40" y="42" xlink:href="#block"/><use x="42" y="42" xlink:href="#block"/><use x="44" y="42" xlink:href="#block"/><use x="46" y="42" xlink:href="#block"/><use x="48" y="42" xlink:href="#block"/><use x="50" y="42" xlink:href="#block"/><use x="52" y="42" xlink:href="#block"/><use x="58" y="42" xlink:href="#block"/><use x="26" y="44" xlink:href="#block"/><use x="28" y="44" xlink:href="#block"/><use x="34" y="44" xlink:href="#block"/><use x="38" y="44" xlink:href="#block"/><use x="40" y="44" xlink:href="#block"/><use x="42" y="44" xlink:href="#block"/><use x="50" y="44" xlink:href="#block"/><use x="58" y="44" xlink:href="#block"/><use x="10" y="46" xlink:href="#block"/><use x="12" y="46" xlink:href="#block"/><use x="14" y="46" xlink:href="#block"/><use x="16" y="46" xlink:href="#block"/><use x="18" y="46" xlink:href="#block"/><use x="20" y="46" xlink:href="#block"/><use x="22" y="46" xlink:href="#block"/><use x="26" y="46" xlink:href="#block"/><use x="28" y="46" xlink:href="#block"/><use x="34" y="46" xlink:href="#block"/><use x="36" y="46" xlink:href="#block"/><use x="38" y="46" xlink:href="#block"/><use x="40" y="46" xlink:href="#block"/><use x="42" y="46" xlink:href="#block"/><use x="46" y="46" xlink:href="#block"/><use x="50" y="46" xlink:href="#block"/><use x="54" y="46" xlink:href="#block"/><use x="56" y="46" xlink:href="#block"/><use x="58" y="46" xlink:href="#block"/><use x="10" y="48" xlink:href="#block"/><use x="22" y="48" xlink:href="#block"/><use x="28" y="48" xlink:href="#block"/><use x="30" y="48" xlink:href="#block"/><use x="32" y="48" xlink:href="#block"/><use x="42" y="48" xlink:href="#block"/><use x="50" y="48" xlink:href="#block"/><use x="52" y="48" xlink:href="#block"/><use x="10" y="50" xlink:href="#block"/><use x="14" y="50" xlink:href="#block"/><use x="16" y="50" xlink:href="#block"/><use x="18" y="50" xlink:href="#block"/><use x="22" y="50" xlink:href="#block"/><use x="26" y="50" xlink:href="#block"/><use x="34" y="50" xlink:href="#block"/><use x="38" y="50" xlink:href="#block"/><use x="42" y="50" xlink:href="#block"/><use x="44" y="50" xlink:href="#block"/><use x="46" y="50" xlink:href="#block"/><use x="48" y="50" xlink:href="#block"/><use x="50" y="50" xlink:href="#block"/><use x="52" y="50" xlink:href="#block"/><use x="10" y="52" xlink:href="#block"/><use x="14" y="52" xlink:href="#block"/><use x="16" y="52" xlink:href="#block"/><use x="18" y="52" xlink:href="#block"/><use x="22" y="52" xlink:href="#block"/><use x="26" y="52" xlink:href="#block"/><use x="30" y="52" xlink:href="#block"/><use x="34" y="52" xlink:href="#block"/><use x="38" y="52" xlink:href="#block"/><use x="40" y="52" xlink:href="#block"/><use x="42" y="52" xlink:href="#block"/><use x="46" y="52" xlink:href="#block"/><use x="50" y="52" xlink:href="#block"/><use x="56" y="52" xlink:href="#block"/><use x="58" y="52" xlink:href="#block"/><use x="10" y="54" xlink:href="#block"/><use x="14" y="54" xlink:href="#block"/><use x="16" y="54" xlink:href="#block"/><use x="18" y="54" xlink:href="#block"/><use x="22" y="54" xlink:href="#block"/><use x="26" y="54" xlink:href="#block"/><use x="30" y="54" xlink:href="#block"/><use x="32" y="54" xlink:href="#block"/><use x="34" y="54" xlink:href="#block"/><use x="36" y="54" xlink:href="#block"/><use x="38" y="54" xlink:href="#block"/><use x="44" y="54" xlink:href="#block"/><use x="46" y="54" xlink:href="#block"/><use x="50" y="54" xlink:href="#block"/><use x="54" y="54" xlink:href="#block"/><use x="58" y="54" xlink:href="#block"/><use x="10" y="56" xlink:href="#block"/><use x="22" y="56" xlink:href="#block"/><use x="26" y="56" xlink:href="#block"/><use x="32" y="56" xlink:href="#block"/><use x="40" y="56" xlink:href="#block"/><use x="44" y="56" xlink:href="#block"/><use x="46" y="56" xlink:href="#block"/><use x="48" y="56" xlink:href="#block"/><use x="50" y="56" xlink:href="#block"/><use x="52" y="56" xlink:href="#block"/><use x="56" y="56" xlink:href="#block"/><use x="10" y="58" xlink:href="#block"/><use x="12" y="58" xlink:href="#block"/><use x="14" y="58" xlink:href="#block"/><use x="16" y="58" xlink:href="#block"/><use x="18" y="58" xlink:href="#block"/><use x="20" y="58" xlink:href="#block"/><use x="22" y="58" xlink:href="#block"/><use x="26" y="58" xlink:href="#block"/><use x="28" y="58" xlink:href="#block"/><use x="30" y="58" xlink:href="#block"/><use x="36" y="58" xlink:href="#block"/><use x="42" y="58" xlink:href="#block"/><use x="54" y="58" xlink:href="#block"/><use x="56" y="58" xlink:href="#block"/><use x="58" y="58" xlink:href="#block"/></svg>
