<?xml version="1.0"?>
<svg xmlns="http://www.w3.org/2000/svg" xmlns:xlink="http://www.w3.org/1999/xlink" version="1.1" width="148px" height="148px" viewBox="0 0 148 148"><defs><rect id="block" width="5" height="5" fill="#000000" fill-opacity="0.99212598425197"/></defs><rect x="0" y="0" width="148" height="148" fill="#ffffff" fill-opacity="0.99212598425197"/><use x="11" y="11" xlink:href="#block"/><use x="16" y="11" xlink:href="#block"/><use x="21" y="11" xlink:href="#block"/><use x="26" y="11" xlink:href="#block"/><use x="31" y="11" xlink:href="#block"/><use x="36" y="11" xlink:href="#block"/><use x="41" y="11" xlink:href="#block"/><use x="56" y="11" xlink:href="#block"/><use x="61" y="11" xlink:href="#block"/><use x="66" y="11" xlink:href="#block"/><use x="91" y="11" xlink:href="#block"/><use x="101" y="11" xlink:href="#block"/><use x="106" y="11" xlink:href="#block"/><use x="111" y="11" xlink:href="#block"/><use x="116" y="11" xlink:href="#block"/><use x="121" y="11" xlink:href="#block"/><use x="126" y="11" xlink:href="#block"/><use x="131" y="11" xlink:href="#block"/><use x="11" y="16" xlink:href="#block"/><use x="41" y="16" xlink:href="#block"/><use x="51" y="16" xlink:href="#block"/><use x="61" y="16" xlink:href="#block"/><use x="66" y="16" xlink:href="#block"/><use x="71" y="16" xlink:href="#block"/><use x="76" y="16" xlink:href="#block"/><use x="81" y="16" xlink:href="#block"/><use x="101" y="16" xlink:href="#block"/><use x="131" y="16" xlink:href="#block"/><use x="11" y="21" xlink:href="#block"/><use x="21" y="21" xlink:href="#block"/><use x="26" y="21" xlink:href="#block"/><use x="31" y="21" xlink:href="#block"/><use x="41" y="21" xlink:href="#block"/><use x="66" y="21" xlink:href="#block"/><use x="76" y="21" xlink:href="#block"/><use x="101" y="21" xlink:href="#block"/><use x="111" y="21" xlink:href="#block"/><use x="116" y="21" xlink:href="#block"/><use x="121" y="21" xlink:href="#block"/><use x="131" y="21" xlink:href="#block"/><use x="11" y="26" xlink:href="#block"/><use x="21" y="26" xlink:href="#block"/><use x="26" y="26" xlink:href="#block"/><use x="31" y="26" xlink:href="#block"/><use x="41" y="26" xlink:href="#block"/><use x="51" y="26" xlink:href="#block"/><use x="56" y="26" xlink:href="#block"/><use x="61" y="26" xlink:href="#block"/><use x="76" y="26" xlink:href="#block"/><use x="81" y="26" xlink:href="#block"/><use x="86" y="26" xlink:href="#block"/><use x="91" y="26" xlink:href="#block"/><use x="101" y="26" xlink:href="#block"/><use x="111" y="26" xlink:href="#block"/><use x="116" y="26" xlink:href="#block"/><use x="121" y="26" xlink:href="#block"/><use x="131" y="26" xlink:href="#block"/><use x="11" y="31" xlink:href="#block"/><use x="21" y="31" xlink:href="#block"/><use x="26" y="31" xlink:href="#block"/><use x="31" y="31" xlink:href="#block"/><use x="41" y="31" xlink:href="#block"/><use x="56" y="31" xlink:href="#block"/><use x="61" y="31" xlink:href="#block"/><use x="66" y="31" xlink:href="#block"/><use x="71" y="31" xlink:href="#block"/><use x="81" y="31" xlink:href="#block"/><use x="86" y="31" xlink:href="#block"/><use x="101" y="31" xlink:href="#block"/><use x="111" y="31" xlink:href="#block"/><use x="116" y="31" xlink:href="#block"/><use x="121" y="31" xlink:href="#block"/><use x="131" y="31" xlink:href="#block"/><use x="11" y="36" xlink:href="#block"/><use x="41" y="36" xlink:href="#block"/><use x="51" y="36" xlink:href="#block"/><use x="71" y="36" xlink:href="#block"/><use x="76" y="36" xlink:href="#block"/><use x="81" y="36" xlink:href="#block"/><use x="91" y="36" xlink:href="#block"/><use x="101" y="36" xlink:href="#block"/><use x="131" y="36" xlink:href="#block"/><use x="11" y="41" xlink:href="#block"/><use x="16" y="41" xlink:href="#block"/><use x="21" y="41" xlink:href="#block"/><use x="26" y="41" xlink:href="#block"/><use x="31" y="41" xlink:href="#block"/><use x="36" y="41" xlink:href="#block"/><use x="41" y="41" xlink:href="#block"/><use x="51" y="41" xlink:href="#block"/><use x="61" y="41" xlink:href="#block"/><use x="71" y="41" xlink:href="#block"/><use x="81" y="41" xlink:href="#block"/><use x="91" y="41" xlink:href="#block"/><use x="101" y="41" xlink:href="#block"/><use x="106" y="41" xlink:href="#block"/><use x="111" y="41" xlink:href="#block"/><use x="116" y="41" xlink:href="#block"/><use x="121" y="41" xlink:href="#block"/><use x="126" y="41" xlink:href="#block"/><use x="131" y="41" xlink:href="#block"/><use x="66" y="46" xlink:href="#block"/><use x="76" y="46" xlink:href="#block"/><use x="91" y="46" xlink:href="#block"/><use x="11" y="51" xlink:href="#block"/><use x="16" y="51" xlink:href="#block"/><use x="21" y="51" xlink:href="#block"/><use x="26" y="51" xlink:href="#block"/><use x="31" y="51" xlink:href="#block"/><use x="41" y="51" xlink:href="#block"/><use x="46" y="51" xlink:href="#block"/><use x="51" y="51" xlink:href="#block"/><use x="61" y="51" xlink:href="#block"/><use x="71" y="51" xlink:href="#block"/><use x="76" y="51" xlink:href="#block"/><use x="86" y="51" xlink:href="#block"/><use x="96" y="51" xlink:href="#block"/><use x="106" y="51" xlink:href="#block"/><use x="116" y="51" xlink:href="#block"/><use x="126" y="51" xlink:href="#block"/><use x="11" y="56" xlink:href="#block"/><use x="26" y="56" xlink:href="#block"/><use x="31" y="56" xlink:href="#block"/><use x="51" y="56" xlink:href="#block"/><use x="56" y="56" xlink:href="#block"/><use x="61" y="56" xlink:href="#block"/><use x="66" y="56" xlink:href="#block"/><use x="81" y="56" xlink:href="#block"/><use x="96" y="56" xlink:href="#block"/><use x="106" y="56" xlink:href="#block"/><use x="111" y="56" xlink:href="#block"/><use x="131" y="56" xlink:href="#block"/><use x="11" y="61" xlink:href="#block"/><use x="21" y="61" xlink:href="#block"/><use x="31" y="61" xlink:href="#block"/><use x="36" y="61" xlink:href="#block"/><use x="41" y="61" xlink:href="#block"/><use x="46" y="61" xlink:href="#block"/><use x="51" y="61" xlink:href="#block"/><use x="56" y="61" xlink:href="#block"/><use x="66" y="61" xlink:href="#block"/><use x="71" y="61" xlink:href="#block"/><use x="76" y="61" xlink:href="#block"/><use x="81" y="61" xlink:href="#block"/><use x="86" y="61" xlink:href="#block"/><use x="91" y="61" xlink:href="#block"/><use x="96" y="61" xlink:href="#block"/><use x="101" y="61" xlink:href="#block"/><use x="111" y="61" xlink:href="#block"/><use x="121" y="61" xlink:href="#block"/><use x="11" y="66" xlink:href="#block"/><use x="16" y="66" xlink:href="#block"/><use x="21" y="66" xlink:href="#block"/><use x="26" y="66" xlink:href="#block"/><use x="36" y="66" xlink:href="#block"/><use x="46" y="66" xlink:href="#block"/><use x="56" y="66" xlink:href="#block"/><use x="66" y="66" xlink:href="#block"/><use x="71" y="66" xlink:href="#block"/><use x="91" y="66" xlink:href="#block"/><use x="11" y="71" xlink:href="#block"/><use x="21" y="71" xlink:href="#block"/><use x="26" y="71" xlink:href="#block"/><use x="31" y="71" xlink:href="#block"/><use x="41" y="71" xlink:href="#block"/><use x="46" y="71" xlink:href="#block"/><use x="56" y="71" xlink:href="#block"/><use x="71" y="71" xlink:href="#block"/><use x="86" y="71" xlink:href="#block"/><use x="91" y="71" xlink:href="#block"/><use x="96" y="71" xlink:href="#block"/><use x="101" y="71" xlink:href="#block"/><use x="106" y="71" xlink:href="#block"/><use x="111" y="71" xlink:href="#block"/><use x="116" y="71" xlink:href="#block"/><use x="126" y="71" xlink:href="#block"/><use x="131" y="71" xlink:href="#block"/><use x="11" y="76" xlink:href="#block"/><use x="16" y="76" xlink:href="#block"/><use x="21" y="76" xlink:href="#block"/><use x="26" y="76" xlink:href="#block"/><use x="46" y="76" xlink:href="#block"/><use x="56" y="76" xlink:href="#block"/><use x="66" y="76" xlink:href="#block"/><use x="81" y="76" xlink:href="#block"/><use x="86" y="76" xlink:href="#block"/><use x="91" y="76" xlink:href="#block"/><use x="96" y="76" xlink:href="#block"/><use x="106" y="76" xlink:href="#block"/><use x="111" y="76" xlink:href="#block"/><use x="11" y="81" xlink:href="#block"/><use x="21" y="81" xlink:href="#block"/><use x="26" y="81" xlink:href="#block"/><use x="31" y="81" xlink:href="#block"/><use x="36" y="81" xlink:href="#block"/><use x="41" y="81" xlink:href="#block"/><use x="66" y="81" xlink:href="#block"/><use x="71" y="81" xlink:href="#block"/><use x="76" y="81" xlink:href="#block"/><use x="81" y="81" xlink:href="#block"/><use x="86" y="81" xlink:href="#block"/><use x="96" y="81" xlink:href="#block"/><use x="101" y="81" xlink:href="#block"/><use x="111" y="81" xlink:href="#block"/><use x="121" y="81" xlink:href="#block"/><use x="126" y="81" xlink:href="#block"/><use x="11" y="86" xlink:href="#block"/><use x="21" y="86" xlink:href="#block"/><use x="26" y="86" xlink:href="#block"/><use x="31" y="86" xlink:href="#block"/><use x="36" y="86" xlink:href="#block"/><use x="46" y="86" xlink:href="#block"/><use x="61" y="86" xlink:href="#block"/><use x="66" y="86" xlink:href="#block"/><use x="76" y="86" xlink:href="#block"/><use x="91" y="86" xlink:href="#block"/><use x="126" y="86" xlink:href="#block"/><use x="131" y="86" xlink:href="#block"/><use x="11" y="91" xlink:href="#block"/><use x="26" y="91" xlink:href="#block"/><use x="41" y="91" xlink:href="#block"/><use x="46" y="91" xlink:href="#block"/><use x="51" y="91" xlink:href="#block"/><use x="56" y="91" xlink:href="#block"/><use x="61" y="91" xlink:href="#block"/><use x="81" y="91" xlink:href="#block"/><use x="86" y="91" xlink:href="#block"/><use x="91" y="91" xlink:href="#block"/><use x="96" y="91" xlink:href="#block"/><use x="101" y="91" xlink:href="#block"/><use x="106" y="91" xlink:href="#block"/><use x="111" y="91" xlink:href="#block"/><use x="116" y="91" xlink:href="#block"/><use x="131" y="91" xlink:href="#block"/><use x="51" y="96" xlink:href="#block"/><use x="56" y="96" xlink:href="#block"/><use x="71" y="96" xlink:href="#block"/><use x="81" y="96" xlink:href="#block"/><use x="86" y="96" xlink:href="#block"/><use x="91" y="96" xlink:href="#block"/><use x="111" y="96" xlink:href="#block"/><use x="131" y="96" xlink:href="#block"/><use x="11" y="101" xlink:href="#block"/><use x="16" y="101" xlink:href="#block"/><use x="21" y="101" xlink:href="#block"/><use x="26" y="101" xlink:href="#block"/><use x="31" y="101" xlink:href="#block"/><use x="36" y="101" xlink:href="#block"/><use x="41" y="101" xlink:href="#block"/><use x="51" y="101" xlink:href="#block"/><use x="56" y="101" xlink:href="#block"/><use x="71" y="101" xlink:href="#block"/><use x="76" y="101" xlink:href="#block"/><use x="81" y="101" xlink:href="#block"/><use x="86" y="101" xlink:href="#block"/><use x="91" y="101" xlink:href="#block"/><use x="101" y="101" xlink:href="#block"/><use x="111" y="101" xlink:href="#block"/><use x="121" y="101" xlink:href="#block"/><use x="126" y="101" xlink:href="#block"/><use x="131" y="101" xlink:href="#block"/><use x="11" y="106" xlink:href="#block"/><use x="41" y="106" xlink:href="#block"/><use x="56" y="106" xlink:href="#block"/><use x="61" y="106" xlink:href="#block"/><use x="66" y="106" xlink:href="#block"/><use x="91" y="106" xlink:href="#block"/><use x="111" y="106" xlink:href="#block"/><use x="116" y="106" xlink:href="#block"/><use x="11" y="111" xlink:href="#block"/><use x="21" y="111" xlink:href="#block"/><use x="26" y="111" xlink:href="#block"/><use x="31" y="111" xlink:href="#block"/><use x="41" y="111" xlink:href="#block"/><use x="51" y="111" xlink:href="#block"/><use x="71" y="111" xlink:href="#block"/><use x="81" y="111" xlink:href="#block"/><use x="91" y="111" xlink:href="#block"/><use x="96" y="111" xlink:href="#block"/><use x="101" y="111" xlink:href="#block"/><use x="106" y="111" xlink:href="#block"/><use x="111" y="111" xlink:href="#block"/><use x="116" y="111" xlink:href="#block"/><use x="11" y="116" xlink:href="#block"/><use x="21" y="116" xlink:href="#block"/><use x="26" y="116" xlink:href="#block"/><use x="31" y="116" xlink:href="#block"/><use x="41" y="116" xlink:href="#block"/><use x="51" y="116" xlink:href="#block"/><use x="61" y="116" xlink:href="#block"/><use x="71" y="116" xlink:href="#block"/><use x="81" y="116" xlink:href="#block"/><use x="86" y="116" xlink:href="#block"/><use x="91" y="116" xlink:href="#block"/><use x="101" y="116" xlink:href="#block"/><use x="111" y="116" xlink:href="#block"/><use x="126" y="116" xlink:href="#block"/><use x="131" y="116" xlink:href="#block"/><use x="11" y="121" xlink:href="#block"/><use x="21" y="121" xlink:href="#block"/><use x="26" y="121" xlink:href="#block"/><use x="31" y="121" xlink:href="#block"/><use x="41" y="121" xlink:href="#block"/><use x="51" y="121" xlink:href="#block"/><use x="61" y="121" xlink:href="#block"/><use x="66" y="121" xlink:href="#block"/><use x="71" y="121" xlink:href="#block"/><use x="76" y="121" xlink:href="#block"/><use x="81" y="121" xlink:href="#block"/><use x="96" y="121" xlink:href="#block"/><use x="101" y="121" xlink:href="#block"/><use x="111" y="121" xlink:href="#block"/><use x="121" y="121" xlink:href="#block"/><use x="131" y="121" xlink:href="#block"/><use x="11" y="126" xlink:href="#block"/><use x="41" y="126" xlink:href="#block"/><use x="51" y="126" xlink:href="#block"/><use x="66" y="126" xlink:href="#block"/><use x="86" y="126" xlink:href="#block"/><use x="96" y="126" xlink:href="#block"/><use x="101" y="126" xlink:href="#block"/><use x="106" y="126" xlink:href="#block"/><use x="111" y="126" xlink:href="#block"/><use x="116" y="126" xlink:href="#block"/><use x="126" y="126" xlink:href="#block"/><use x="11" y="131" xlink:href="#block"/><use x="16" y="131" xlink:href="#block"/><use x="21" y="131" xlink:href="#block"/><use x="26" y="131" xlink:href="#block"/><use x="31" y="131" xlink:href="#block"/><use x="36" y="131" xlink:href="#block"/><use x="41" y="131" xlink:href="#block"/><use x="51" y="131" xlink:href="#block"/><use x="56" y="131" xlink:href="#block"/><use x="61" y="131" xlink:href="#block"/><use x="76" y="131" xlink:href="#block"/><use x="91" y="131" xlink:href="#block"/><use x="121" y="131" xlink:href="#block"/><use x="126" y="131" xlink:href="#block"/><use x="131" y="131" xlink:href="#block"/></svg>
