<?xml version="1.0"?>
<svg xmlns="http://www.w3.org/2000/svg" xmlns:xlink="http://www.w3.org/1999/xlink" version="1.1" width="96px" height="96px" viewBox="0 0 96 96"><defs><rect id="block" width="3" height="3" fill="#000000" fill-opacity="0.99212598425197"/></defs><rect x="0" y="0" width="96" height="96" fill="#ffffff" fill-opacity="0.99212598425197"/><use x="10" y="10" xlink:href="#block"/><use x="13" y="10" xlink:href="#block"/><use x="16" y="10" xlink:href="#block"/><use x="19" y="10" xlink:href="#block"/><use x="22" y="10" xlink:href="#block"/><use x="25" y="10" xlink:href="#block"/><use x="28" y="10" xlink:href="#block"/><use x="37" y="10" xlink:href="#block"/><use x="40" y="10" xlink:href="#block"/><use x="43" y="10" xlink:href="#block"/><use x="58" y="10" xlink:href="#block"/><use x="64" y="10" xlink:href="#block"/><use x="67" y="10" xlink:href="#block"/><use x="70" y="10" xlink:href="#block"/><use x="73" y="10" xlink:href="#block"/><use x="76" y="10" xlink:href="#block"/><use x="79" y="10" xlink:href="#block"/><use x="82" y="10" xlink:href="#block"/><use x="10" y="13" xlink:href="#block"/><use x="28" y="13" xlink:href="#block"/><use x="34" y="13" xlink:href="#block"/><use x="40" y="13" xlink:href="#block"/><use x="43" y="13" xlink:href="#block"/><use x="46" y="13" xlink:href="#block"/><use x="49" y="13" xlink:href="#block"/><use x="52" y="13" xlink:href="#block"/><use x="64" y="13" xlink:href="#block"/><use x="82" y="13" xlink:href="#block"/><use x="10" y="16" xlink:href="#block"/><use x="16" y="16" xlink:href="#block"/><use x="19" y="16" xlink:href="#block"/><use x="22" y="16" xlink:href="#block"/><use x="28" y="16" xlink:href="#block"/><use x="43" y="16" xlink:href="#block"/><use x="49" y="16" xlink:href="#block"/><use x="64" y="16" xlink:href="#block"/><use x="70" y="16" xlink:href="#block"/><use x="73" y="16" xlink:href="#block"/><use x="76" y="16" xlink:href="#block"/><use x="82" y="16" xlink:href="#block"/><use x="10" y="19" xlink:href="#block"/><use x="16" y="19" xlink:href="#block"/><use x="19" y="19" xlink:href="#block"/><use x="22" y="19" xlink:href="#block"/><use x="28" y="19" xlink:href="#block"/><use x="34" y="19" xlink:href="#block"/><use x="37" y="19" xlink:href="#block"/><use x="40" y="19" xlink:href="#block"/><use x="49" y="19" xlink:href="#block"/><use x="52" y="19" xlink:href="#block"/><use x="55" y="19" xlink:href="#block"/><use x="58" y="19" xlink:href="#block"/><use x="64" y="19" xlink:href="#block"/><use x="70" y="19" xlink:href="#block"/><use x="73" y="19" xlink:href="#block"/><use x="76" y="19" xlink:href="#block"/><use x="82" y="19" xlink:href="#block"/><use x="10" y="22" xlink:href="#block"/><use x="16" y="22" xlink:href="#block"/><use x="19" y="22" xlink:href="#block"/><use x="22" y="22" xlink:href="#block"/><use x="28" y="22" xlink:href="#block"/><use x="37" y="22" xlink:href="#block"/><use x="40" y="22" xlink:href="#block"/><use x="43" y="22" xlink:href="#block"/><use x="46" y="22" xlink:href="#block"/><use x="52" y="22" xlink:href="#block"/><use x="55" y="22" xlink:href="#block"/><use x="64" y="22" xlink:href="#block"/><use x="70" y="22" xlink:href="#block"/><use x="73" y="22" xlink:href="#block"/><use x="76" y="22" xlink:href="#block"/><use x="82" y="22" xlink:href="#block"/><use x="10" y="25" xlink:href="#block"/><use x="28" y="25" xlink:href="#block"/><use x="34" y="25" xlink:href="#block"/><use x="46" y="25" xlink:href="#block"/><use x="49" y="25" xlink:href="#block"/><use x="52" y="25" xlink:href="#block"/><use x="58" y="25" xlink:href="#block"/><use x="64" y="25" xlink:href="#block"/><use x="82" y="25" xlink:href="#block"/><use x="10" y="28" xlink:href="#block"/><use x="13" y="28" xlink:href="#block"/><use x="16" y="28" xlink:href="#block"/><use x="19" y="28" xlink:href="#block"/><use x="22" y="28" xlink:href="#block"/><use x="25" y="28" xlink:href="#block"/><use x="28" y="28" xlink:href="#block"/><use x="34" y="28" xlink:href="#block"/><use x="40" y="28" xlink:href="#block"/><use x="46" y="28" xlink:href="#block"/><use x="52" y="28" xlink:href="#block"/><use x="58" y="28" xlink:href="#block"/><use x="64" y="28" xlink:href="#block"/><use x="67" y="28" xlink:href="#block"/><use x="70" y="28" xlink:href="#block"/><use x="73" y="28" xlink:href="#block"/><use x="76" y="28" xlink:href="#block"/><use x="79" y="28" xlink:href="#block"/><use x="82" y="28" xlink:href="#block"/><use x="43" y="31" xlink:href="#block"/><use x="49" y="31" xlink:href="#block"/><use x="58" y="31" xlink:href="#block"/><use x="10" y="34" xlink:href="#block"/><use x="13" y="34" xlink:href="#block"/><use x="16" y="34" xlink:href="#block"/><use x="19" y="34" xlink:href="#block"/><use x="22" y="34" xlink:href="#block"/><use x="28" y="34" xlink:href="#block"/><use x="31" y="34" xlink:href="#block"/><use x="34" y="34" xlink:href="#block"/><use x="40" y="34" xlink:href="#block"/><use x="46" y="34" xlink:href="#block"/><use x="49" y="34" xlink:href="#block"/><use x="55" y="34" xlink:href="#block"/><use x="61" y="34" xlink:href="#block"/><use x="67" y="34" xlink:href="#block"/><use x="73" y="34" xlink:href="#block"/><use x="79" y="34" xlink:href="#block"/><use x="10" y="37" xlink:href="#block"/><use x="19" y="37" xlink:href="#block"/><use x="22" y="37" xlink:href="#block"/><use x="34" y="37" xlink:href="#block"/><use x="37" y="37" xlink:href="#block"/><use x="40" y="37" xlink:href="#block"/><use x="43" y="37" xlink:href="#block"/><use x="52" y="37" xlink:href="#block"/><use x="61" y="37" xlink:href="#block"/><use x="67" y="37" xlink:href="#block"/><use x="70" y="37" xlink:href="#block"/><use x="82" y="37" xlink:href="#block"/><use x="10" y="40" xlink:href="#block"/><use x="16" y="40" xlink:href="#block"/><use x="22" y="40" xlink:href="#block"/><use x="25" y="40" xlink:href="#block"/><use x="28" y="40" xlink:href="#block"/><use x="31" y="40" xlink:href="#block"/><use x="34" y="40" xlink:href="#block"/><use x="37" y="40" xlink:href="#block"/><use x="43" y="40" xlink:href="#block"/><use x="46" y="40" xlink:href="#block"/><use x="49" y="40" xlink:href="#block"/><use x="52" y="40" xlink:href="#block"/><use x="55" y="40" xlink:href="#block"/><use x="58" y="40" xlink:href="#block"/><use x="61" y="40" xlink:href="#block"/><use x="64" y="40" xlink:href="#block"/><use x="70" y="40" xlink:href="#block"/><use x="76" y="40" xlink:href="#block"/><use x="10" y="43" xlink:href="#block"/><use x="13" y="43" xlink:href="#block"/><use x="16" y="43" xlink:href="#block"/><use x="19" y="43" xlink:href="#block"/><use x="25" y="43" xlink:href="#block"/><use x="31" y="43" xlink:href="#block"/><use x="37" y="43" xlink:href="#block"/><use x="43" y="43" xlink:href="#block"/><use x="46" y="43" xlink:href="#block"/><use x="58" y="43" xlink:href="#block"/><use x="10" y="46" xlink:href="#block"/><use x="16" y="46" xlink:href="#block"/><use x="19" y="46" xlink:href="#block"/><use x="22" y="46" xlink:href="#block"/><use x="28" y="46" xlink:href="#block"/><use x="31" y="46" xlink:href="#block"/><use x="37" y="46" xlink:href="#block"/><use x="46" y="46" xlink:href="#block"/><use x="55" y="46" xlink:href="#block"/><use x="58" y="46" xlink:href="#block"/><use x="61" y="46" xlink:href="#block"/><use x="64" y="46" xlink:href="#block"/><use x="67" y="46" xlink:href="#block"/><use x="70" y="46" xlink:href="#block"/><use x="73" y="46" xlink:href="#block"/><use x="79" y="46" xlink:href="#block"/><use x="82" y="46" xlink:href="#block"/><use x="10" y="49" xlink:href="#block"/><use x="13" y="49" xlink:href="#block"/><use x="16" y="49" xlink:href="#block"/><use x="19" y="49" xlink:href="#block"/><use x="31" y="49" xlink:href="#block"/><use x="37" y="49" xlink:href="#block"/><use x="43" y="49" xlink:href="#block"/><use x="52" y="49" xlink:href="#block"/><use x="55" y="49" xlink:href="#block"/><use x="58" y="49" xlink:href="#block"/><use x="61" y="49" xlink:href="#block"/><use x="67" y="49" xlink:href="#block"/><use x="70" y="49" xlink:href="#block"/><use x="10" y="52" xlink:href="#block"/><use x="16" y="52" xlink:href="#block"/><use x="19" y="52" xlink:href="#block"/><use x="22" y="52" xlink:href="#block"/><use x="25" y="52" xlink:href="#block"/><use x="28" y="52" xlink:href="#block"/><use x="43" y="52" xlink:href="#block"/><use x="46" y="52" xlink:href="#block"/><use x="49" y="52" xlink:href="#block"/><use x="52" y="52" xlink:href="#block"/><use x="55" y="52" xlink:href="#block"/><use x="61" y="52" xlink:href="#block"/><use x="64" y="52" xlink:href="#block"/><use x="70" y="52" xlink:href="#block"/><use x="76" y="52" xlink:href="#block"/><use x="79" y="52" xlink:href="#block"/><use x="10" y="55" xlink:href="#block"/><use x="16" y="55" xlink:href="#block"/><use x="19" y="55" xlink:href="#block"/><use x="22" y="55" xlink:href="#block"/><use x="25" y="55" xlink:href="#block"/><use x="31" y="55" xlink:href="#block"/><use x="40" y="55" xlink:href="#block"/><use x="43" y="55" xlink:href="#block"/><use x="49" y="55" xlink:href="#block"/><use x="58" y="55" xlink:href="#block"/><use x="79" y="55" xlink:href="#block"/><use x="82" y="55" xlink:href="#block"/><use x="10" y="58" xlink:href="#block"/><use x="19" y="58" xlink:href="#block"/><use x="28" y="58" xlink:href="#block"/><use x="31" y="58" xlink:href="#block"/><use x="34" y="58" xlink:href="#block"/><use x="37" y="58" xlink:href="#block"/><use x="40" y="58" xlink:href="#block"/><use x="52" y="58" xlink:href="#block"/><use x="55" y="58" xlink:href="#block"/><use x="58" y="58" xlink:href="#block"/><use x="61" y="58" xlink:href="#block"/><use x="64" y="58" xlink:href="#block"/><use x="67" y="58" xlink:href="#block"/><use x="70" y="58" xlink:href="#block"/><use x="73" y="58" xlink:href="#block"/><use x="82" y="58" xlink:href="#block"/><use x="34" y="61" xlink:href="#block"/><use x="37" y="61" xlink:href="#block"/><use x="46" y="61" xlink:href="#block"/><use x="52" y="61" xlink:href="#block"/><use x="55" y="61" xlink:href="#block"/><use x="58" y="61" xlink:href="#block"/><use x="70" y="61" xlink:href="#block"/><use x="82" y="61" xlink:href="#block"/><use x="10" y="64" xlink:href="#block"/><use x="13" y="64" xlink:href="#block"/><use x="16" y="64" xlink:href="#block"/><use x="19" y="64" xlink:href="#block"/><use x="22" y="64" xlink:href="#block"/><use x="25" y="64" xlink:href="#block"/><use x="28" y="64" xlink:href="#block"/><use x="34" y="64" xlink:href="#block"/><use x="37" y="64" xlink:href="#block"/><use x="46" y="64" xlink:href="#block"/><use x="49" y="64" xlink:href="#block"/><use x="52" y="64" xlink:href="#block"/><use x="55" y="64" xlink:href="#block"/><use x="58" y="64" xlink:href="#block"/><use x="64" y="64" xlink:href="#block"/><use x="70" y="64" xlink:href="#block"/><use x="76" y="64" xlink:href="#block"/><use x="79" y="64" xlink:href="#block"/><use x="82" y="64" xlink:href="#block"/><use x="10" y="67" xlink:href="#block"/><use x="28" y="67" xlink:href="#block"/><use x="37" y="67" xlink:href="#block"/><use x="40" y="67" xlink:href="#block"/><use x="43" y="67" xlink:href="#block"/><use x="58" y="67" xlink:href="#block"/><use x="70" y="67" xlink:href="#block"/><use x="73" y="67" xlink:href="#block"/><use x="10" y="70" xlink:href="#block"/><use x="16" y="70" xlink:href="#block"/><use x="19" y="70" xlink:href="#block"/><use x="22" y="70" xlink:href="#block"/><use x="28" y="70" xlink:href="#block"/><use x="34" y="70" xlink:href="#block"/><use x="46" y="70" xlink:href="#block"/><use x="52" y="70" xlink:href="#block"/><use x="58" y="70" xlink:href="#block"/><use x="61" y="70" xlink:href="#block"/><use x="64" y="70" xlink:href="#block"/><use x="67" y="70" xlink:href="#block"/><use x="70" y="70" xlink:href="#block"/><use x="73" y="70" xlink:href="#block"/><use x="10" y="73" xlink:href="#block"/><use x="16" y="73" xlink:href="#block"/><use x="19" y="73" xlink:href="#block"/><use x="22" y="73" xlink:href="#block"/><use x="28" y="73" xlink:href="#block"/><use x="34" y="73" xlink:href="#block"/><use x="40" y="73" xlink:href="#block"/><use x="46" y="73" xlink:href="#block"/><use x="52" y="73" xlink:href="#block"/><use x="55" y="73" xlink:href="#block"/><use x="58" y="73" xlink:href="#block"/><use x="64" y="73" xlink:href="#block"/><use x="70" y="73" xlink:href="#block"/><use x="79" y="73" xlink:href="#block"/><use x="82" y="73" xlink:href="#block"/><use x="10" y="76" xlink:href="#block"/><use x="16" y="76" xlink:href="#block"/><use x="19" y="76" xlink:href="#block"/><use x="22" y="76" xlink:href="#block"/><use x="28" y="76" xlink:href="#block"/><use x="34" y="76" xlink:href="#block"/><use x="40" y="76" xlink:href="#block"/><use x="43" y="76" xlink:href="#block"/><use x="46" y="76" xlink:href="#block"/><use x="49" y="76" xlink:href="#block"/><use x="52" y="76" xlink:href="#block"/><use x="61" y="76" xlink:href="#block"/><use x="64" y="76" xlink:href="#block"/><use x="70" y="76" xlink:href="#block"/><use x="76" y="76" xlink:href="#block"/><use x="82" y="76" xlink:href="#block"/><use x="10" y="79" xlink:href="#block"/><use x="28" y="79" xlink:href="#block"/><use x="34" y="79" xlink:href="#block"/><use x="43" y="79" xlink:href="#block"/><use x="55" y="79" xlink:href="#block"/><use x="61" y="79" xlink:href="#block"/><use x="64" y="79" xlink:href="#block"/><use x="67" y="79" xlink:href="#block"/><use x="70" y="79" xlink:href="#block"/><use x="73" y="79" xlink:href="#block"/><use x="79" y="79" xlink:href="#block"/><use x="10" y="82" xlink:href="#block"/><use x="13" y="82" xlink:href="#block"/><use x="16" y="82" xlink:href="#block"/><use x="19" y="82" xlink:href="#block"/><use x="22" y="82" xlink:href="#block"/><use x="25" y="82" xlink:href="#block"/><use x="28" y="82" xlink:href="#block"/><use x="34" y="82" xlink:href="#block"/><use x="37" y="82" xlink:href="#block"/><use x="40" y="82" xlink:href="#block"/><use x="49" y="82" xlink:href="#block"/><use x="58" y="82" xlink:href="#block"/><use x="76" y="82" xlink:href="#block"/><use x="79" y="82" xlink:href="#block"/><use x="82" y="82" xlink:href="#block"/></svg>
