<?xml version="1.0"?>
<svg xmlns="http://www.w3.org/2000/svg" xmlns:xlink="http://www.w3.org/1999/xlink" version="1.1" width="72px" height="72px" viewBox="0 0 72 72"><defs><rect id="block" width="2" height="2" fill="#000000" fill-opacity="0.99212598425197"/></defs><rect x="0" y="0" width="72" height="72" fill="#ffffff" fill-opacity="0.99212598425197"/><use x="11" y="11" xlink:href="#block"/><use x="13" y="11" xlink:href="#block"/><use x="15" y="11" xlink:href="#block"/><use x="17" y="11" xlink:href="#block"/><use x="19" y="11" xlink:href="#block"/><use x="21" y="11" xlink:href="#block"/><use x="23" y="11" xlink:href="#block"/><use x="29" y="11" xlink:href="#block"/><use x="31" y="11" xlink:href="#block"/><use x="33" y="11" xlink:href="#block"/><use x="43" y="11" xlink:href="#block"/><use x="47" y="11" xlink:href="#block"/><use x="49" y="11" xlink:href="#block"/><use x="51" y="11" xlink:href="#block"/><use x="53" y="11" xlink:href="#block"/><use x="55" y="11" xlink:href="#block"/><use x="57" y="11" xlink:href="#block"/><use x="59" y="11" xlink:href="#block"/><use x="11" y="13" xlink:href="#block"/><use x="23" y="13" xlink:href="#block"/><use x="27" y="13" xlink:href="#block"/><use x="31" y="13" xlink:href="#block"/><use x="33" y="13" xlink:href="#block"/><use x="35" y="13" xlink:href="#block"/><use x="37" y="13" xlink:href="#block"/><use x="39" y="13" xlink:href="#block"/><use x="47" y="13" xlink:href="#block"/><use x="59" y="13" xlink:href="#block"/><use x="11" y="15" xlink:href="#block"/><use x="15" y="15" xlink:href="#block"/><use x="17" y="15" xlink:href="#block"/><use x="19" y="15" xlink:href="#block"/><use x="23" y="15" xlink:href="#block"/><use x="33" y="15" xlink:href="#block"/><use x="37" y="15" xlink:href="#block"/><use x="47" y="15" xlink:href="#block"/><use x="51" y="15" xlink:href="#block"/><use x="53" y="15" xlink:href="#block"/><use x="55" y="15" xlink:href="#block"/><use x="59" y="15" xlink:href="#block"/><use x="11" y="17" xlink:href="#block"/><use x="15" y="17" xlink:href="#block"/><use x="17" y="17" xlink:href="#block"/><use x="19" y="17" xlink:href="#block"/><use x="23" y="17" xlink:href="#block"/><use x="27" y="17" xlink:href="#block"/><use x="29" y="17" xlink:href="#block"/><use x="31" y="17" xlink:href="#block"/><use x="37" y="17" xlink:href="#block"/><use x="39" y="17" xlink:href="#block"/><use x="41" y="17" xlink:href="#block"/><use x="43" y="17" xlink:href="#block"/><use x="47" y="17" xlink:href="#block"/><use x="51" y="17" xlink:href="#block"/><use x="53" y="17" xlink:href="#block"/><use x="55" y="17" xlink:href="#block"/><use x="59" y="17" xlink:href="#block"/><use x="11" y="19" xlink:href="#block"/><use x="15" y="19" xlink:href="#block"/><use x="17" y="19" xlink:href="#block"/><use x="19" y="19" xlink:href="#block"/><use x="23" y="19" xlink:href="#block"/><use x="29" y="19" xlink:href="#block"/><use x="31" y="19" xlink:href="#block"/><use x="33" y="19" xlink:href="#block"/><use x="35" y="19" xlink:href="#block"/><use x="39" y="19" xlink:href="#block"/><use x="41" y="19" xlink:href="#block"/><use x="47" y="19" xlink:href="#block"/><use x="51" y="19" xlink:href="#block"/><use x="53" y="19" xlink:href="#block"/><use x="55" y="19" xlink:href="#block"/><use x="59" y="19" xlink:href="#block"/><use x="11" y="21" xlink:href="#block"/><use x="23" y="21" xlink:href="#block"/><use x="27" y="21" xlink:href="#block"/><use x="35" y="21" xlink:href="#block"/><use x="37" y="21" xlink:href="#block"/><use x="39" y="21" xlink:href="#block"/><use x="43" y="21" xlink:href="#block"/><use x="47" y="21" xlink:href="#block"/><use x="59" y="21" xlink:href="#block"/><use x="11" y="23" xlink:href="#block"/><use x="13" y="23" xlink:href="#block"/><use x="15" y="23" xlink:href="#block"/><use x="17" y="23" xlink:href="#block"/><use x="19" y="23" xlink:href="#block"/><use x="21" y="23" xlink:href="#block"/><use x="23" y="23" xlink:href="#block"/><use x="27" y="23" xlink:href="#block"/><use x="31" y="23" xlink:href="#block"/><use x="35" y="23" xlink:href="#block"/><use x="39" y="23" xlink:href="#block"/><use x="43" y="23" xlink:href="#block"/><use x="47" y="23" xlink:href="#block"/><use x="49" y="23" xlink:href="#block"/><use x="51" y="23" xlink:href="#block"/><use x="53" y="23" xlink:href="#block"/><use x="55" y="23" xlink:href="#block"/><use x="57" y="23" xlink:href="#block"/><use x="59" y="23" xlink:href="#block"/><use x="33" y="25" xlink:href="#block"/><use x="37" y="25" xlink:href="#block"/><use x="43" y="25" xlink:href="#block"/><use x="11" y="27" xlink:href="#block"/><use x="13" y="27" xlink:href="#block"/><use x="15" y="27" xlink:href="#block"/><use x="17" y="27" xlink:href="#block"/><use x="19" y="27" xlink:href="#block"/><use x="23" y="27" xlink:href="#block"/><use x="25" y="27" xlink:href="#block"/><use x="27" y="27" xlink:href="#block"/><use x="31" y="27" xlink:href="#block"/><use x="35" y="27" xlink:href="#block"/><use x="37" y="27" xlink:href="#block"/><use x="41" y="27" xlink:href="#block"/><use x="45" y="27" xlink:href="#block"/><use x="49" y="27" xlink:href="#block"/><use x="53" y="27" xlink:href="#block"/><use x="57" y="27" xlink:href="#block"/><use x="11" y="29" xlink:href="#block"/><use x="17" y="29" xlink:href="#block"/><use x="19" y="29" xlink:href="#block"/><use x="27" y="29" xlink:href="#block"/><use x="29" y="29" xlink:href="#block"/><use x="31" y="29" xlink:href="#block"/><use x="33" y="29" xlink:href="#block"/><use x="39" y="29" xlink:href="#block"/><use x="45" y="29" xlink:href="#block"/><use x="49" y="29" xlink:href="#block"/><use x="51" y="29" xlink:href="#block"/><use x="59" y="29" xlink:href="#block"/><use x="11" y="31" xlink:href="#block"/><use x="15" y="31" xlink:href="#block"/><use x="19" y="31" xlink:href="#block"/><use x="21" y="31" xlink:href="#block"/><use x="23" y="31" xlink:href="#block"/><use x="25" y="31" xlink:href="#block"/><use x="27" y="31" xlink:href="#block"/><use x="29" y="31" xlink:href="#block"/><use x="33" y="31" xlink:href="#block"/><use x="35" y="31" xlink:href="#block"/><use x="37" y="31" xlink:href="#block"/><use x="39" y="31" xlink:href="#block"/><use x="41" y="31" xlink:href="#block"/><use x="43" y="31" xlink:href="#block"/><use x="45" y="31" xlink:href="#block"/><use x="47" y="31" xlink:href="#block"/><use x="51" y="31" xlink:href="#block"/><use x="55" y="31" xlink:href="#block"/><use x="11" y="33" xlink:href="#block"/><use x="13" y="33" xlink:href="#block"/><use x="15" y="33" xlink:href="#block"/><use x="17" y="33" xlink:href="#block"/><use x="21" y="33" xlink:href="#block"/><use x="25" y="33" xlink:href="#block"/><use x="29" y="33" xlink:href="#block"/><use x="33" y="33" xlink:href="#block"/><use x="35" y="33" xlink:href="#block"/><use x="43" y="33" xlink:href="#block"/><use x="11" y="35" xlink:href="#block"/><use x="15" y="35" xlink:href="#block"/><use x="17" y="35" xlink:href="#block"/><use x="19" y="35" xlink:href="#block"/><use x="23" y="35" xlink:href="#block"/><use x="25" y="35" xlink:href="#block"/><use x="29" y="35" xlink:href="#block"/><use x="35" y="35" xlink:href="#block"/><use x="41" y="35" xlink:href="#block"/><use x="43" y="35" xlink:href="#block"/><use x="45" y="35" xlink:href="#block"/><use x="47" y="35" xlink:href="#block"/><use x="49" y="35" xlink:href="#block"/><use x="51" y="35" xlink:href="#block"/><use x="53" y="35" xlink:href="#block"/><use x="57" y="35" xlink:href="#block"/><use x="59" y="35" xlink:href="#block"/><use x="11" y="37" xlink:href="#block"/><use x="13" y="37" xlink:href="#block"/><use x="15" y="37" xlink:href="#block"/><use x="17" y="37" xlink:href="#block"/><use x="25" y="37" xlink:href="#block"/><use x="29" y="37" xlink:href="#block"/><use x="33" y="37" xlink:href="#block"/><use x="39" y="37" xlink:href="#block"/><use x="41" y="37" xlink:href="#block"/><use x="43" y="37" xlink:href="#block"/><use x="45" y="37" xlink:href="#block"/><use x="49" y="37" xlink:href="#block"/><use x="51" y="37" xlink:href="#block"/><use x="11" y="39" xlink:href="#block"/><use x="15" y="39" xlink:href="#block"/><use x="17" y="39" xlink:href="#block"/><use x="19" y="39" xlink:href="#block"/><use x="21" y="39" xlink:href="#block"/><use x="23" y="39" xlink:href="#block"/><use x="33" y="39" xlink:href="#block"/><use x="35" y="39" xlink:href="#block"/><use x="37" y="39" xlink:href="#block"/><use x="39" y="39" xlink:href="#block"/><use x="41" y="39" xlink:href="#block"/><use x="45" y="39" xlink:href="#block"/><use x="47" y="39" xlink:href="#block"/><use x="51" y="39" xlink:href="#block"/><use x="55" y="39" xlink:href="#block"/><use x="57" y="39" xlink:href="#block"/><use x="11" y="41" xlink:href="#block"/><use x="15" y="41" xlink:href="#block"/><use x="17" y="41" xlink:href="#block"/><use x="19" y="41" xlink:href="#block"/><use x="21" y="41" xlink:href="#block"/><use x="25" y="41" xlink:href="#block"/><use x="31" y="41" xlink:href="#block"/><use x="33" y="41" xlink:href="#block"/><use x="37" y="41" xlink:href="#block"/><use x="43" y="41" xlink:href="#block"/><use x="57" y="41" xlink:href="#block"/><use x="59" y="41" xlink:href="#block"/><use x="11" y="43" xlink:href="#block"/><use x="17" y="43" xlink:href="#block"/><use x="23" y="43" xlink:href="#block"/><use x="25" y="43" xlink:href="#block"/><use x="27" y="43" xlink:href="#block"/><use x="29" y="43" xlink:href="#block"/><use x="31" y="43" xlink:href="#block"/><use x="39" y="43" xlink:href="#block"/><use x="41" y="43" xlink:href="#block"/><use x="43" y="43" xlink:href="#block"/><use x="45" y="43" xlink:href="#block"/><use x="47" y="43" xlink:href="#block"/><use x="49" y="43" xlink:href="#block"/><use x="51" y="43" xlink:href="#block"/><use x="53" y="43" xlink:href="#block"/><use x="59" y="43" xlink:href="#block"/><use x="27" y="45" xlink:href="#block"/><use x="29" y="45" xlink:href="#block"/><use x="35" y="45" xlink:href="#block"/><use x="39" y="45" xlink:href="#block"/><use x="41" y="45" xlink:href="#block"/><use x="43" y="45" xlink:href="#block"/><use x="51" y="45" xlink:href="#block"/><use x="59" y="45" xlink:href="#block"/><use x="11" y="47" xlink:href="#block"/><use x="13" y="47" xlink:href="#block"/><use x="15" y="47" xlink:href="#block"/><use x="17" y="47" xlink:href="#block"/><use x="19" y="47" xlink:href="#block"/><use x="21" y="47" xlink:href="#block"/><use x="23" y="47" xlink:href="#block"/><use x="27" y="47" xlink:href="#block"/><use x="29" y="47" xlink:href="#block"/><use x="35" y="47" xlink:href="#block"/><use x="37" y="47" xlink:href="#block"/><use x="39" y="47" xlink:href="#block"/><use x="41" y="47" xlink:href="#block"/><use x="43" y="47" xlink:href="#block"/><use x="47" y="47" xlink:href="#block"/><use x="51" y="47" xlink:href="#block"/><use x="55" y="47" xlink:href="#block"/><use x="57" y="47" xlink:href="#block"/><use x="59" y="47" xlink:href="#block"/><use x="11" y="49" xlink:href="#block"/><use x="23" y="49" xlink:href="#block"/><use x="29" y="49" xlink:href="#block"/><use x="31" y="49" xlink:href="#block"/><use x="33" y="49" xlink:href="#block"/><use x="43" y="49" xlink:href="#block"/><use x="51" y="49" xlink:href="#block"/><use x="53" y="49" xlink:href="#block"/><use x="11" y="51" xlink:href="#block"/><use x="15" y="51" xlink:href="#block"/><use x="17" y="51" xlink:href="#block"/><use x="19" y="51" xlink:href="#block"/><use x="23" y="51" xlink:href="#block"/><use x="27" y="51" xlink:href="#block"/><use x="35" y="51" xlink:href="#block"/><use x="39" y="51" xlink:href="#block"/><use x="43" y="51" xlink:href="#block"/><use x="45" y="51" xlink:href="#block"/><use x="47" y="51" xlink:href="#block"/><use x="49" y="51" xlink:href="#block"/><use x="51" y="51" xlink:href="#block"/><use x="53" y="51" xlink:href="#block"/><use x="11" y="53" xlink:href="#block"/><use x="15" y="53" xlink:href="#block"/><use x="17" y="53" xlink:href="#block"/><use x="19" y="53" xlink:href="#block"/><use x="23" y="53" xlink:href="#block"/><use x="27" y="53" xlink:href="#block"/><use x="31" y="53" xlink:href="#block"/><use x="35" y="53" xlink:href="#block"/><use x="39" y="53" xlink:href="#block"/><use x="41" y="53" xlink:href="#block"/><use x="43" y="53" xlink:href="#block"/><use x="47" y="53" xlink:href="#block"/><use x="51" y="53" xlink:href="#block"/><use x="57" y="53" xlink:href="#block"/><use x="59" y="53" xlink:href="#block"/><use x="11" y="55" xlink:href="#block"/><use x="15" y="55" xlink:href="#block"/><use x="17" y="55" xlink:href="#block"/><use x="19" y="55" xlink:href="#block"/><use x="23" y="55" xlink:href="#block"/><use x="27" y="55" xlink:href="#block"/><use x="31" y="55" xlink:href="#block"/><use x="33" y="55" xlink:href="#block"/><use x="35" y="55" xlink:href="#block"/><use x="37" y="55" xlink:href="#block"/><use x="39" y="55" xlink:href="#block"/><use x="45" y="55" xlink:href="#block"/><use x="47" y="55" xlink:href="#block"/><use x="51" y="55" xlink:href="#block"/><use x="55" y="55" xlink:href="#block"/><use x="59" y="55" xlink:href="#block"/><use x="11" y="57" xlink:href="#block"/><use x="23" y="57" xlink:href="#block"/><use x="27" y="57" xlink:href="#block"/><use x="33" y="57" xlink:href="#block"/><use x="41" y="57" xlink:href="#block"/><use x="45" y="57" xlink:href="#block"/><use x="47" y="57" xlink:href="#block"/><use x="49" y="57" xlink:href="#block"/><use x="51" y="57" xlink:href="#block"/><use x="53" y="57" xlink:href="#block"/><use x="57" y="57" xlink:href="#block"/><use x="11" y="59" xlink:href="#block"/><use x="13" y="59" xlink:href="#block"/><use x="15" y="59" xlink:href="#block"/><use x="17" y="59" xlink:href="#block"/><use x="19" y="59" xlink:href="#block"/><use x="21" y="59" xlink:href="#block"/><use x="23" y="59" xlink:href="#block"/><use x="27" y="59" xlink:href="#block"/><use x="29" y="59" xlink:href="#block"/><use x="31" y="59" xlink:href="#block"/><use x="37" y="59" xlink:href="#block"/><use x="43" y="59" xlink:href="#block"/><use x="55" y="59" xlink:href="#block"/><use x="57" y="59" xlink:href="#block"/><use x="59" y="59" xlink:href="#block"/></svg>
