<?xml version="1.0"?>
<svg xmlns="http://www.w3.org/2000/svg" xmlns:xlink="http://www.w3.org/1999/xlink" version="1.1" width="100px" height="100px" viewBox="0 0 100 100"><defs><rect id="block" width="3" height="3" fill="#000000" fill-opacity="0.99212598425197"/></defs><rect x="0" y="0" width="100" height="100" fill="#ffffff" fill-opacity="0.99212598425197"/><use x="12" y="12" xlink:href="#block"/><use x="15" y="12" xlink:href="#block"/><use x="18" y="12" xlink:href="#block"/><use x="21" y="12" xlink:href="#block"/><use x="24" y="12" xlink:href="#block"/><use x="27" y="12" xlink:href="#block"/><use x="30" y="12" xlink:href="#block"/><use x="39" y="12" xlink:href="#block"/><use x="42" y="12" xlink:href="#block"/><use x="45" y="12" xlink:href="#block"/><use x="60" y="12" xlink:href="#block"/><use x="66" y="12" xlink:href="#block"/><use x="69" y="12" xlink:href="#block"/><use x="72" y="12" xlink:href="#block"/><use x="75" y="12" xlink:href="#block"/><use x="78" y="12" xlink:href="#block"/><use x="81" y="12" xlink:href="#block"/><use x="84" y="12" xlink:href="#block"/><use x="12" y="15" xlink:href="#block"/><use x="30" y="15" xlink:href="#block"/><use x="36" y="15" xlink:href="#block"/><use x="42" y="15" xlink:href="#block"/><use x="45" y="15" xlink:href="#block"/><use x="48" y="15" xlink:href="#block"/><use x="51" y="15" xlink:href="#block"/><use x="54" y="15" xlink:href="#block"/><use x="66" y="15" xlink:href="#block"/><use x="84" y="15" xlink:href="#block"/><use x="12" y="18" xlink:href="#block"/><use x="18" y="18" xlink:href="#block"/><use x="21" y="18" xlink:href="#block"/><use x="24" y="18" xlink:href="#block"/><use x="30" y="18" xlink:href="#block"/><use x="45" y="18" xlink:href="#block"/><use x="51" y="18" xlink:href="#block"/><use x="66" y="18" xlink:href="#block"/><use x="72" y="18" xlink:href="#block"/><use x="75" y="18" xlink:href="#block"/><use x="78" y="18" xlink:href="#block"/><use x="84" y="18" xlink:href="#block"/><use x="12" y="21" xlink:href="#block"/><use x="18" y="21" xlink:href="#block"/><use x="21" y="21" xlink:href="#block"/><use x="24" y="21" xlink:href="#block"/><use x="30" y="21" xlink:href="#block"/><use x="36" y="21" xlink:href="#block"/><use x="39" y="21" xlink:href="#block"/><use x="42" y="21" xlink:href="#block"/><use x="51" y="21" xlink:href="#block"/><use x="54" y="21" xlink:href="#block"/><use x="57" y="21" xlink:href="#block"/><use x="60" y="21" xlink:href="#block"/><use x="66" y="21" xlink:href="#block"/><use x="72" y="21" xlink:href="#block"/><use x="75" y="21" xlink:href="#block"/><use x="78" y="21" xlink:href="#block"/><use x="84" y="21" xlink:href="#block"/><use x="12" y="24" xlink:href="#block"/><use x="18" y="24" xlink:href="#block"/><use x="21" y="24" xlink:href="#block"/><use x="24" y="24" xlink:href="#block"/><use x="30" y="24" xlink:href="#block"/><use x="39" y="24" xlink:href="#block"/><use x="42" y="24" xlink:href="#block"/><use x="45" y="24" xlink:href="#block"/><use x="48" y="24" xlink:href="#block"/><use x="54" y="24" xlink:href="#block"/><use x="57" y="24" xlink:href="#block"/><use x="66" y="24" xlink:href="#block"/><use x="72" y="24" xlink:href="#block"/><use x="75" y="24" xlink:href="#block"/><use x="78" y="24" xlink:href="#block"/><use x="84" y="24" xlink:href="#block"/><use x="12" y="27" xlink:href="#block"/><use x="30" y="27" xlink:href="#block"/><use x="36" y="27" xlink:href="#block"/><use x="48" y="27" xlink:href="#block"/><use x="51" y="27" xlink:href="#block"/><use x="54" y="27" xlink:href="#block"/><use x="60" y="27" xlink:href="#block"/><use x="66" y="27" xlink:href="#block"/><use x="84" y="27" xlink:href="#block"/><use x="12" y="30" xlink:href="#block"/><use x="15" y="30" xlink:href="#block"/><use x="18" y="30" xlink:href="#block"/><use x="21" y="30" xlink:href="#block"/><use x="24" y="30" xlink:href="#block"/><use x="27" y="30" xlink:href="#block"/><use x="30" y="30" xlink:href="#block"/><use x="36" y="30" xlink:href="#block"/><use x="42" y="30" xlink:href="#block"/><use x="48" y="30" xlink:href="#block"/><use x="54" y="30" xlink:href="#block"/><use x="60" y="30" xlink:href="#block"/><use x="66" y="30" xlink:href="#block"/><use x="69" y="30" xlink:href="#block"/><use x="72" y="30" xlink:href="#block"/><use x="75" y="30" xlink:href="#block"/><use x="78" y="30" xlink:href="#block"/><use x="81" y="30" xlink:href="#block"/><use x="84" y="30" xlink:href="#block"/><use x="45" y="33" xlink:href="#block"/><use x="51" y="33" xlink:href="#block"/><use x="60" y="33" xlink:href="#block"/><use x="12" y="36" xlink:href="#block"/><use x="15" y="36" xlink:href="#block"/><use x="18" y="36" xlink:href="#block"/><use x="21" y="36" xlink:href="#block"/><use x="24" y="36" xlink:href="#block"/><use x="30" y="36" xlink:href="#block"/><use x="33" y="36" xlink:href="#block"/><use x="36" y="36" xlink:href="#block"/><use x="42" y="36" xlink:href="#block"/><use x="48" y="36" xlink:href="#block"/><use x="51" y="36" xlink:href="#block"/><use x="57" y="36" xlink:href="#block"/><use x="63" y="36" xlink:href="#block"/><use x="69" y="36" xlink:href="#block"/><use x="75" y="36" xlink:href="#block"/><use x="81" y="36" xlink:href="#block"/><use x="12" y="39" xlink:href="#block"/><use x="21" y="39" xlink:href="#block"/><use x="24" y="39" xlink:href="#block"/><use x="36" y="39" xlink:href="#block"/><use x="39" y="39" xlink:href="#block"/><use x="42" y="39" xlink:href="#block"/><use x="45" y="39" xlink:href="#block"/><use x="54" y="39" xlink:href="#block"/><use x="63" y="39" xlink:href="#block"/><use x="69" y="39" xlink:href="#block"/><use x="72" y="39" xlink:href="#block"/><use x="84" y="39" xlink:href="#block"/><use x="12" y="42" xlink:href="#block"/><use x="18" y="42" xlink:href="#block"/><use x="24" y="42" xlink:href="#block"/><use x="27" y="42" xlink:href="#block"/><use x="30" y="42" xlink:href="#block"/><use x="33" y="42" xlink:href="#block"/><use x="36" y="42" xlink:href="#block"/><use x="39" y="42" xlink:href="#block"/><use x="45" y="42" xlink:href="#block"/><use x="48" y="42" xlink:href="#block"/><use x="51" y="42" xlink:href="#block"/><use x="54" y="42" xlink:href="#block"/><use x="57" y="42" xlink:href="#block"/><use x="60" y="42" xlink:href="#block"/><use x="63" y="42" xlink:href="#block"/><use x="66" y="42" xlink:href="#block"/><use x="72" y="42" xlink:href="#block"/><use x="78" y="42" xlink:href="#block"/><use x="12" y="45" xlink:href="#block"/><use x="15" y="45" xlink:href="#block"/><use x="18" y="45" xlink:href="#block"/><use x="21" y="45" xlink:href="#block"/><use x="27" y="45" xlink:href="#block"/><use x="33" y="45" xlink:href="#block"/><use x="39" y="45" xlink:href="#block"/><use x="45" y="45" xlink:href="#block"/><use x="48" y="45" xlink:href="#block"/><use x="60" y="45" xlink:href="#block"/><use x="12" y="48" xlink:href="#block"/><use x="18" y="48" xlink:href="#block"/><use x="21" y="48" xlink:href="#block"/><use x="24" y="48" xlink:href="#block"/><use x="30" y="48" xlink:href="#block"/><use x="33" y="48" xlink:href="#block"/><use x="39" y="48" xlink:href="#block"/><use x="48" y="48" xlink:href="#block"/><use x="57" y="48" xlink:href="#block"/><use x="60" y="48" xlink:href="#block"/><use x="63" y="48" xlink:href="#block"/><use x="66" y="48" xlink:href="#block"/><use x="69" y="48" xlink:href="#block"/><use x="72" y="48" xlink:href="#block"/><use x="75" y="48" xlink:href="#block"/><use x="81" y="48" xlink:href="#block"/><use x="84" y="48" xlink:href="#block"/><use x="12" y="51" xlink:href="#block"/><use x="15" y="51" xlink:href="#block"/><use x="18" y="51" xlink:href="#block"/><use x="21" y="51" xlink:href="#block"/><use x="33" y="51" xlink:href="#block"/><use x="39" y="51" xlink:href="#block"/><use x="45" y="51" xlink:href="#block"/><use x="54" y="51" xlink:href="#block"/><use x="57" y="51" xlink:href="#block"/><use x="60" y="51" xlink:href="#block"/><use x="63" y="51" xlink:href="#block"/><use x="69" y="51" xlink:href="#block"/><use x="72" y="51" xlink:href="#block"/><use x="12" y="54" xlink:href="#block"/><use x="18" y="54" xlink:href="#block"/><use x="21" y="54" xlink:href="#block"/><use x="24" y="54" xlink:href="#block"/><use x="27" y="54" xlink:href="#block"/><use x="30" y="54" xlink:href="#block"/><use x="45" y="54" xlink:href="#block"/><use x="48" y="54" xlink:href="#block"/><use x="51" y="54" xlink:href="#block"/><use x="54" y="54" xlink:href="#block"/><use x="57" y="54" xlink:href="#block"/><use x="63" y="54" xlink:href="#block"/><use x="66" y="54" xlink:href="#block"/><use x="72" y="54" xlink:href="#block"/><use x="78" y="54" xlink:href="#block"/><use x="81" y="54" xlink:href="#block"/><use x="12" y="57" xlink:href="#block"/><use x="18" y="57" xlink:href="#block"/><use x="21" y="57" xlink:href="#block"/><use x="24" y="57" xlink:href="#block"/><use x="27" y="57" xlink:href="#block"/><use x="33" y="57" xlink:href="#block"/><use x="42" y="57" xlink:href="#block"/><use x="45" y="57" xlink:href="#block"/><use x="51" y="57" xlink:href="#block"/><use x="60" y="57" xlink:href="#block"/><use x="81" y="57" xlink:href="#block"/><use x="84" y="57" xlink:href="#block"/><use x="12" y="60" xlink:href="#block"/><use x="21" y="60" xlink:href="#block"/><use x="30" y="60" xlink:href="#block"/><use x="33" y="60" xlink:href="#block"/><use x="36" y="60" xlink:href="#block"/><use x="39" y="60" xlink:href="#block"/><use x="42" y="60" xlink:href="#block"/><use x="54" y="60" xlink:href="#block"/><use x="57" y="60" xlink:href="#block"/><use x="60" y="60" xlink:href="#block"/><use x="63" y="60" xlink:href="#block"/><use x="66" y="60" xlink:href="#block"/><use x="69" y="60" xlink:href="#block"/><use x="72" y="60" xlink:href="#block"/><use x="75" y="60" xlink:href="#block"/><use x="84" y="60" xlink:href="#block"/><use x="36" y="63" xlink:href="#block"/><use x="39" y="63" xlink:href="#block"/><use x="48" y="63" xlink:href="#block"/><use x="54" y="63" xlink:href="#block"/><use x="57" y="63" xlink:href="#block"/><use x="60" y="63" xlink:href="#block"/><use x="72" y="63" xlink:href="#block"/><use x="84" y="63" xlink:href="#block"/><use x="12" y="66" xlink:href="#block"/><use x="15" y="66" xlink:href="#block"/><use x="18" y="66" xlink:href="#block"/><use x="21" y="66" xlink:href="#block"/><use x="24" y="66" xlink:href="#block"/><use x="27" y="66" xlink:href="#block"/><use x="30" y="66" xlink:href="#block"/><use x="36" y="66" xlink:href="#block"/><use x="39" y="66" xlink:href="#block"/><use x="48" y="66" xlink:href="#block"/><use x="51" y="66" xlink:href="#block"/><use x="54" y="66" xlink:href="#block"/><use x="57" y="66" xlink:href="#block"/><use x="60" y="66" xlink:href="#block"/><use x="66" y="66" xlink:href="#block"/><use x="72" y="66" xlink:href="#block"/><use x="78" y="66" xlink:href="#block"/><use x="81" y="66" xlink:href="#block"/><use x="84" y="66" xlink:href="#block"/><use x="12" y="69" xlink:href="#block"/><use x="30" y="69" xlink:href="#block"/><use x="39" y="69" xlink:href="#block"/><use x="42" y="69" xlink:href="#block"/><use x="45" y="69" xlink:href="#block"/><use x="60" y="69" xlink:href="#block"/><use x="72" y="69" xlink:href="#block"/><use x="75" y="69" xlink:href="#block"/><use x="12" y="72" xlink:href="#block"/><use x="18" y="72" xlink:href="#block"/><use x="21" y="72" xlink:href="#block"/><use x="24" y="72" xlink:href="#block"/><use x="30" y="72" xlink:href="#block"/><use x="36" y="72" xlink:href="#block"/><use x="48" y="72" xlink:href="#block"/><use x="54" y="72" xlink:href="#block"/><use x="60" y="72" xlink:href="#block"/><use x="63" y="72" xlink:href="#block"/><use x="66" y="72" xlink:href="#block"/><use x="69" y="72" xlink:href="#block"/><use x="72" y="72" xlink:href="#block"/><use x="75" y="72" xlink:href="#block"/><use x="12" y="75" xlink:href="#block"/><use x="18" y="75" xlink:href="#block"/><use x="21" y="75" xlink:href="#block"/><use x="24" y="75" xlink:href="#block"/><use x="30" y="75" xlink:href="#block"/><use x="36" y="75" xlink:href="#block"/><use x="42" y="75" xlink:href="#block"/><use x="48" y="75" xlink:href="#block"/><use x="54" y="75" xlink:href="#block"/><use x="57" y="75" xlink:href="#block"/><use x="60" y="75" xlink:href="#block"/><use x="66" y="75" xlink:href="#block"/><use x="72" y="75" xlink:href="#block"/><use x="81" y="75" xlink:href="#block"/><use x="84" y="75" xlink:href="#block"/><use x="12" y="78" xlink:href="#block"/><use x="18" y="78" xlink:href="#block"/><use x="21" y="78" xlink:href="#block"/><use x="24" y="78" xlink:href="#block"/><use x="30" y="78" xlink:href="#block"/><use x="36" y="78" xlink:href="#block"/><use x="42" y="78" xlink:href="#block"/><use x="45" y="78" xlink:href="#block"/><use x="48" y="78" xlink:href="#block"/><use x="51" y="78" xlink:href="#block"/><use x="54" y="78" xlink:href="#block"/><use x="63" y="78" xlink:href="#block"/><use x="66" y="78" xlink:href="#block"/><use x="72" y="78" xlink:href="#block"/><use x="78" y="78" xlink:href="#block"/><use x="84" y="78" xlink:href="#block"/><use x="12" y="81" xlink:href="#block"/><use x="30" y="81" xlink:href="#block"/><use x="36" y="81" xlink:href="#block"/><use x="45" y="81" xlink:href="#block"/><use x="57" y="81" xlink:href="#block"/><use x="63" y="81" xlink:href="#block"/><use x="66" y="81" xlink:href="#block"/><use x="69" y="81" xlink:href="#block"/><use x="72" y="81" xlink:href="#block"/><use x="75" y="81" xlink:href="#block"/><use x="81" y="81" xlink:href="#block"/><use x="12" y="84" xlink:href="#block"/><use x="15" y="84" xlink:href="#block"/><use x="18" y="84" xlink:href="#block"/><use x="21" y="84" xlink:href="#block"/><use x="24" y="84" xlink:href="#block"/><use x="27" y="84" xlink:href="#block"/><use x="30" y="84" xlink:href="#block"/><use x="36" y="84" xlink:href="#block"/><use x="39" y="84" xlink:href="#block"/><use x="42" y="84" xlink:href="#block"/><use x="51" y="84" xlink:href="#block"/><use x="60" y="84" xlink:href="#block"/><use x="78" y="84" xlink:href="#block"/><use x="81" y="84" xlink:href="#block"/><use x="84" y="84" xlink:href="#block"/></svg>
