<?xml version="1.0"?>
<svg xmlns="http://www.w3.org/2000/svg" xmlns:xlink="http://www.w3.org/1999/xlink" version="1.1" width="170px" height="170px" viewBox="0 0 170 170"><defs><rect id="block" width="6" height="6" fill="#000000" fill-opacity="0.99212598425197"/></defs><rect x="0" y="0" width="170" height="170" fill="#ffffff" fill-opacity="0.99212598425197"/><use x="10" y="10" xlink:href="#block"/><use x="16" y="10" xlink:href="#block"/><use x="22" y="10" xlink:href="#block"/><use x="28" y="10" xlink:href="#block"/><use x="34" y="10" xlink:href="#block"/><use x="40" y="10" xlink:href="#block"/><use x="46" y="10" xlink:href="#block"/><use x="64" y="10" xlink:href="#block"/><use x="70" y="10" xlink:href="#block"/><use x="76" y="10" xlink:href="#block"/><use x="106" y="10" xlink:href="#block"/><use x="118" y="10" xlink:href="#block"/><use x="124" y="10" xlink:href="#block"/><use x="130" y="10" xlink:href="#block"/><use x="136" y="10" xlink:href="#block"/><use x="142" y="10" xlink:href="#block"/><use x="148" y="10" xlink:href="#block"/><use x="154" y="10" xlink:href="#block"/><use x="10" y="16" xlink:href="#block"/><use x="46" y="16" xlink:href="#block"/><use x="58" y="16" xlink:href="#block"/><use x="70" y="16" xlink:href="#block"/><use x="76" y="16" xlink:href="#block"/><use x="82" y="16" xlink:href="#block"/><use x="88" y="16" xlink:href="#block"/><use x="94" y="16" xlink:href="#block"/><use x="118" y="16" xlink:href="#block"/><use x="154" y="16" xlink:href="#block"/><use x="10" y="22" xlink:href="#block"/><use x="22" y="22" xlink:href="#block"/><use x="28" y="22" xlink:href="#block"/><use x="34" y="22" xlink:href="#block"/><use x="46" y="22" xlink:href="#block"/><use x="76" y="22" xlink:href="#block"/><use x="88" y="22" xlink:href="#block"/><use x="118" y="22" xlink:href="#block"/><use x="130" y="22" xlink:href="#block"/><use x="136" y="22" xlink:href="#block"/><use x="142" y="22" xlink:href="#block"/><use x="154" y="22" xlink:href="#block"/><use x="10" y="28" xlink:href="#block"/><use x="22" y="28" xlink:href="#block"/><use x="28" y="28" xlink:href="#block"/><use x="34" y="28" xlink:href="#block"/><use x="46" y="28" xlink:href="#block"/><use x="58" y="28" xlink:href="#block"/><use x="64" y="28" xlink:href="#block"/><use x="70" y="28" xlink:href="#block"/><use x="88" y="28" xlink:href="#block"/><use x="94" y="28" xlink:href="#block"/><use x="100" y="28" xlink:href="#block"/><use x="106" y="28" xlink:href="#block"/><use x="118" y="28" xlink:href="#block"/><use x="130" y="28" xlink:href="#block"/><use x="136" y="28" xlink:href="#block"/><use x="142" y="28" xlink:href="#block"/><use x="154" y="28" xlink:href="#block"/><use x="10" y="34" xlink:href="#block"/><use x="22" y="34" xlink:href="#block"/><use x="28" y="34" xlink:href="#block"/><use x="34" y="34" xlink:href="#block"/><use x="46" y="34" xlink:href="#block"/><use x="64" y="34" xlink:href="#block"/><use x="70" y="34" xlink:href="#block"/><use x="76" y="34" xlink:href="#block"/><use x="82" y="34" xlink:href="#block"/><use x="94" y="34" xlink:href="#block"/><use x="100" y="34" xlink:href="#block"/><use x="118" y="34" xlink:href="#block"/><use x="130" y="34" xlink:href="#block"/><use x="136" y="34" xlink:href="#block"/><use x="142" y="34" xlink:href="#block"/><use x="154" y="34" xlink:href="#block"/><use x="10" y="40" xlink:href="#block"/><use x="46" y="40" xlink:href="#block"/><use x="58" y="40" xlink:href="#block"/><use x="82" y="40" xlink:href="#block"/><use x="88" y="40" xlink:href="#block"/><use x="94" y="40" xlink:href="#block"/><use x="106" y="40" xlink:href="#block"/><use x="118" y="40" xlink:href="#block"/><use x="154" y="40" xlink:href="#block"/><use x="10" y="46" xlink:href="#block"/><use x="16" y="46" xlink:href="#block"/><use x="22" y="46" xlink:href="#block"/><use x="28" y="46" xlink:href="#block"/><use x="34" y="46" xlink:href="#block"/><use x="40" y="46" xlink:href="#block"/><use x="46" y="46" xlink:href="#block"/><use x="58" y="46" xlink:href="#block"/><use x="70" y="46" xlink:href="#block"/><use x="82" y="46" xlink:href="#block"/><use x="94" y="46" xlink:href="#block"/><use x="106" y="46" xlink:href="#block"/><use x="118" y="46" xlink:href="#block"/><use x="124" y="46" xlink:href="#block"/><use x="130" y="46" xlink:href="#block"/><use x="136" y="46" xlink:href="#block"/><use x="142" y="46" xlink:href="#block"/><use x="148" y="46" xlink:href="#block"/><use x="154" y="46" xlink:href="#block"/><use x="76" y="52" xlink:href="#block"/><use x="88" y="52" xlink:href="#block"/><use x="106" y="52" xlink:href="#block"/><use x="10" y="58" xlink:href="#block"/><use x="16" y="58" xlink:href="#block"/><use x="22" y="58" xlink:href="#block"/><use x="28" y="58" xlink:href="#block"/><use x="34" y="58" xlink:href="#block"/><use x="46" y="58" xlink:href="#block"/><use x="52" y="58" xlink:href="#block"/><use x="58" y="58" xlink:href="#block"/><use x="70" y="58" xlink:href="#block"/><use x="82" y="58" xlink:href="#block"/><use x="88" y="58" xlink:href="#block"/><use x="100" y="58" xlink:href="#block"/><use x="112" y="58" xlink:href="#block"/><use x="124" y="58" xlink:href="#block"/><use x="136" y="58" xlink:href="#block"/><use x="148" y="58" xlink:href="#block"/><use x="10" y="64" xlink:href="#block"/><use x="28" y="64" xlink:href="#block"/><use x="34" y="64" xlink:href="#block"/><use x="58" y="64" xlink:href="#block"/><use x="64" y="64" xlink:href="#block"/><use x="70" y="64" xlink:href="#block"/><use x="76" y="64" xlink:href="#block"/><use x="94" y="64" xlink:href="#block"/><use x="112" y="64" xlink:href="#block"/><use x="124" y="64" xlink:href="#block"/><use x="130" y="64" xlink:href="#block"/><use x="154" y="64" xlink:href="#block"/><use x="10" y="70" xlink:href="#block"/><use x="22" y="70" xlink:href="#block"/><use x="34" y="70" xlink:href="#block"/><use x="40" y="70" xlink:href="#block"/><use x="46" y="70" xlink:href="#block"/><use x="52" y="70" xlink:href="#block"/><use x="58" y="70" xlink:href="#block"/><use x="64" y="70" xlink:href="#block"/><use x="76" y="70" xlink:href="#block"/><use x="82" y="70" xlink:href="#block"/><use x="88" y="70" xlink:href="#block"/><use x="94" y="70" xlink:href="#block"/><use x="100" y="70" xlink:href="#block"/><use x="106" y="70" xlink:href="#block"/><use x="112" y="70" xlink:href="#block"/><use x="118" y="70" xlink:href="#block"/><use x="130" y="70" xlink:href="#block"/><use x="142" y="70" xlink:href="#block"/><use x="10" y="76" xlink:href="#block"/><use x="16" y="76" xlink:href="#block"/><use x="22" y="76" xlink:href="#block"/><use x="28" y="76" xlink:href="#block"/><use x="40" y="76" xlink:href="#block"/><use x="52" y="76" xlink:href="#block"/><use x="64" y="76" xlink:href="#block"/><use x="76" y="76" xlink:href="#block"/><use x="82" y="76" xlink:href="#block"/><use x="106" y="76" xlink:href="#block"/><use x="10" y="82" xlink:href="#block"/><use x="22" y="82" xlink:href="#block"/><use x="28" y="82" xlink:href="#block"/><use x="34" y="82" xlink:href="#block"/><use x="46" y="82" xlink:href="#block"/><use x="52" y="82" xlink:href="#block"/><use x="64" y="82" xlink:href="#block"/><use x="82" y="82" xlink:href="#block"/><use x="100" y="82" xlink:href="#block"/><use x="106" y="82" xlink:href="#block"/><use x="112" y="82" xlink:href="#block"/><use x="118" y="82" xlink:href="#block"/><use x="124" y="82" xlink:href="#block"/><use x="130" y="82" xlink:href="#block"/><use x="136" y="82" xlink:href="#block"/><use x="148" y="82" xlink:href="#block"/><use x="154" y="82" xlink:href="#block"/><use x="10" y="88" xlink:href="#block"/><use x="16" y="88" xlink:href="#block"/><use x="22" y="88" xlink:href="#block"/><use x="28" y="88" xlink:href="#block"/><use x="52" y="88" xlink:href="#block"/><use x="64" y="88" xlink:href="#block"/><use x="76" y="88" xlink:href="#block"/><use x="94" y="88" xlink:href="#block"/><use x="100" y="88" xlink:href="#block"/><use x="106" y="88" xlink:href="#block"/><use x="112" y="88" xlink:href="#block"/><use x="124" y="88" xlink:href="#block"/><use x="130" y="88" xlink:href="#block"/><use x="10" y="94" xlink:href="#block"/><use x="22" y="94" xlink:href="#block"/><use x="28" y="94" xlink:href="#block"/><use x="34" y="94" xlink:href="#block"/><use x="40" y="94" xlink:href="#block"/><use x="46" y="94" xlink:href="#block"/><use x="76" y="94" xlink:href="#block"/><use x="82" y="94" xlink:href="#block"/><use x="88" y="94" xlink:href="#block"/><use x="94" y="94" xlink:href="#block"/><use x="100" y="94" xlink:href="#block"/><use x="112" y="94" xlink:href="#block"/><use x="118" y="94" xlink:href="#block"/><use x="130" y="94" xlink:href="#block"/><use x="142" y="94" xlink:href="#block"/><use x="148" y="94" xlink:href="#block"/><use x="10" y="100" xlink:href="#block"/><use x="22" y="100" xlink:href="#block"/><use x="28" y="100" xlink:href="#block"/><use x="34" y="100" xlink:href="#block"/><use x="40" y="100" xlink:href="#block"/><use x="52" y="100" xlink:href="#block"/><use x="70" y="100" xlink:href="#block"/><use x="76" y="100" xlink:href="#block"/><use x="88" y="100" xlink:href="#block"/><use x="106" y="100" xlink:href="#block"/><use x="148" y="100" xlink:href="#block"/><use x="154" y="100" xlink:href="#block"/><use x="10" y="106" xlink:href="#block"/><use x="28" y="106" xlink:href="#block"/><use x="46" y="106" xlink:href="#block"/><use x="52" y="106" xlink:href="#block"/><use x="58" y="106" xlink:href="#block"/><use x="64" y="106" xlink:href="#block"/><use x="70" y="106" xlink:href="#block"/><use x="94" y="106" xlink:href="#block"/><use x="100" y="106" xlink:href="#block"/><use x="106" y="106" xlink:href="#block"/><use x="112" y="106" xlink:href="#block"/><use x="118" y="106" xlink:href="#block"/><use x="124" y="106" xlink:href="#block"/><use x="130" y="106" xlink:href="#block"/><use x="136" y="106" xlink:href="#block"/><use x="154" y="106" xlink:href="#block"/><use x="58" y="112" xlink:href="#block"/><use x="64" y="112" xlink:href="#block"/><use x="82" y="112" xlink:href="#block"/><use x="94" y="112" xlink:href="#block"/><use x="100" y="112" xlink:href="#block"/><use x="106" y="112" xlink:href="#block"/><use x="130" y="112" xlink:href="#block"/><use x="154" y="112" xlink:href="#block"/><use x="10" y="118" xlink:href="#block"/><use x="16" y="118" xlink:href="#block"/><use x="22" y="118" xlink:href="#block"/><use x="28" y="118" xlink:href="#block"/><use x="34" y="118" xlink:href="#block"/><use x="40" y="118" xlink:href="#block"/><use x="46" y="118" xlink:href="#block"/><use x="58" y="118" xlink:href="#block"/><use x="64" y="118" xlink:href="#block"/><use x="82" y="118" xlink:href="#block"/><use x="88" y="118" xlink:href="#block"/><use x="94" y="118" xlink:href="#block"/><use x="100" y="118" xlink:href="#block"/><use x="106" y="118" xlink:href="#block"/><use x="118" y="118" xlink:href="#block"/><use x="130" y="118" xlink:href="#block"/><use x="142" y="118" xlink:href="#block"/><use x="148" y="118" xlink:href="#block"/><use x="154" y="118" xlink:href="#block"/><use x="10" y="124" xlink:href="#block"/><use x="46" y="124" xlink:href="#block"/><use x="64" y="124" xlink:href="#block"/><use x="70" y="124" xlink:href="#block"/><use x="76" y="124" xlink:href="#block"/><use x="106" y="124" xlink:href="#block"/><use x="130" y="124" xlink:href="#block"/><use x="136" y="124" xlink:href="#block"/><use x="10" y="130" xlink:href="#block"/><use x="22" y="130" xlink:href="#block"/><use x="28" y="130" xlink:href="#block"/><use x="34" y="130" xlink:href="#block"/><use x="46" y="130" xlink:href="#block"/><use x="58" y="130" xlink:href="#block"/><use x="82" y="130" xlink:href="#block"/><use x="94" y="130" xlink:href="#block"/><use x="106" y="130" xlink:href="#block"/><use x="112" y="130" xlink:href="#block"/><use x="118" y="130" xlink:href="#block"/><use x="124" y="130" xlink:href="#block"/><use x="130" y="130" xlink:href="#block"/><use x="136" y="130" xlink:href="#block"/><use x="10" y="136" xlink:href="#block"/><use x="22" y="136" xlink:href="#block"/><use x="28" y="136" xlink:href="#block"/><use x="34" y="136" xlink:href="#block"/><use x="46" y="136" xlink:href="#block"/><use x="58" y="136" xlink:href="#block"/><use x="70" y="136" xlink:href="#block"/><use x="82" y="136" xlink:href="#block"/><use x="94" y="136" xlink:href="#block"/><use x="100" y="136" xlink:href="#block"/><use x="106" y="136" xlink:href="#block"/><use x="118" y="136" xlink:href="#block"/><use x="130" y="136" xlink:href="#block"/><use x="148" y="136" xlink:href="#block"/><use x="154" y="136" xlink:href="#block"/><use x="10" y="142" xlink:href="#block"/><use x="22" y="142" xlink:href="#block"/><use x="28" y="142" xlink:href="#block"/><use x="34" y="142" xlink:href="#block"/><use x="46" y="142" xlink:href="#block"/><use x="58" y="142" xlink:href="#block"/><use x="70" y="142" xlink:href="#block"/><use x="76" y="142" xlink:href="#block"/><use x="82" y="142" xlink:href="#block"/><use x="88" y="142" xlink:href="#block"/><use x="94" y="142" xlink:href="#block"/><use x="112" y="142" xlink:href="#block"/><use x="118" y="142" xlink:href="#block"/><use x="130" y="142" xlink:href="#block"/><use x="142" y="142" xlink:href="#block"/><use x="154" y="142" xlink:href="#block"/><use x="10" y="148" xlink:href="#block"/><use x="46" y="148" xlink:href="#block"/><use x="58" y="148" xlink:href="#block"/><use x="76" y="148" xlink:href="#block"/><use x="100" y="148" xlink:href="#block"/><use x="112" y="148" xlink:href="#block"/><use x="118" y="148" xlink:href="#block"/><use x="124" y="148" xlink:href="#block"/><use x="130" y="148" xlink:href="#block"/><use x="136" y="148" xlink:href="#block"/><use x="148" y="148" xlink:href="#block"/><use x="10" y="154" xlink:href="#block"/><use x="16" y="154" xlink:href="#block"/><use x="22" y="154" xlink:href="#block"/><use x="28" y="154" xlink:href="#block"/><use x="34" y="154" xlink:href="#block"/><use x="40" y="154" xlink:href="#block"/><use x="46" y="154" xlink:href="#block"/><use x="58" y="154" xlink:href="#block"/><use x="64" y="154" xlink:href="#block"/><use x="70" y="154" xlink:href="#block"/><use x="88" y="154" xlink:href="#block"/><use x="106" y="154" xlink:href="#block"/><use x="142" y="154" xlink:href="#block"/><use x="148" y="154" xlink:href="#block"/><use x="154" y="154" xlink:href="#block"/></svg>
