<?xml version="1.0"?>
<svg xmlns="http://www.w3.org/2000/svg" xmlns:xlink="http://www.w3.org/1999/xlink" version="1.1" width="122px" height="122px" viewBox="0 0 122 122"><defs><rect id="block" width="4" height="4" fill="#000000" fill-opacity="0.99212598425197"/></defs><rect x="0" y="0" width="122" height="122" fill="#ffffff" fill-opacity="0.99212598425197"/><use x="11" y="11" xlink:href="#block"/><use x="15" y="11" xlink:href="#block"/><use x="19" y="11" xlink:href="#block"/><use x="23" y="11" xlink:href="#block"/><use x="27" y="11" xlink:href="#block"/><use x="31" y="11" xlink:href="#block"/><use x="35" y="11" xlink:href="#block"/><use x="47" y="11" xlink:href="#block"/><use x="51" y="11" xlink:href="#block"/><use x="55" y="11" xlink:href="#block"/><use x="75" y="11" xlink:href="#block"/><use x="83" y="11" xlink:href="#block"/><use x="87" y="11" xlink:href="#block"/><use x="91" y="11" xlink:href="#block"/><use x="95" y="11" xlink:href="#block"/><use x="99" y="11" xlink:href="#block"/><use x="103" y="11" xlink:href="#block"/><use x="107" y="11" xlink:href="#block"/><use x="11" y="15" xlink:href="#block"/><use x="35" y="15" xlink:href="#block"/><use x="43" y="15" xlink:href="#block"/><use x="51" y="15" xlink:href="#block"/><use x="55" y="15" xlink:href="#block"/><use x="59" y="15" xlink:href="#block"/><use x="63" y="15" xlink:href="#block"/><use x="67" y="15" xlink:href="#block"/><use x="83" y="15" xlink:href="#block"/><use x="107" y="15" xlink:href="#block"/><use x="11" y="19" xlink:href="#block"/><use x="19" y="19" xlink:href="#block"/><use x="23" y="19" xlink:href="#block"/><use x="27" y="19" xlink:href="#block"/><use x="35" y="19" xlink:href="#block"/><use x="55" y="19" xlink:href="#block"/><use x="63" y="19" xlink:href="#block"/><use x="83" y="19" xlink:href="#block"/><use x="91" y="19" xlink:href="#block"/><use x="95" y="19" xlink:href="#block"/><use x="99" y="19" xlink:href="#block"/><use x="107" y="19" xlink:href="#block"/><use x="11" y="23" xlink:href="#block"/><use x="19" y="23" xlink:href="#block"/><use x="23" y="23" xlink:href="#block"/><use x="27" y="23" xlink:href="#block"/><use x="35" y="23" xlink:href="#block"/><use x="43" y="23" xlink:href="#block"/><use x="47" y="23" xlink:href="#block"/><use x="51" y="23" xlink:href="#block"/><use x="63" y="23" xlink:href="#block"/><use x="67" y="23" xlink:href="#block"/><use x="71" y="23" xlink:href="#block"/><use x="75" y="23" xlink:href="#block"/><use x="83" y="23" xlink:href="#block"/><use x="91" y="23" xlink:href="#block"/><use x="95" y="23" xlink:href="#block"/><use x="99" y="23" xlink:href="#block"/><use x="107" y="23" xlink:href="#block"/><use x="11" y="27" xlink:href="#block"/><use x="19" y="27" xlink:href="#block"/><use x="23" y="27" xlink:href="#block"/><use x="27" y="27" xlink:href="#block"/><use x="35" y="27" xlink:href="#block"/><use x="47" y="27" xlink:href="#block"/><use x="51" y="27" xlink:href="#block"/><use x="55" y="27" xlink:href="#block"/><use x="59" y="27" xlink:href="#block"/><use x="67" y="27" xlink:href="#block"/><use x="71" y="27" xlink:href="#block"/><use x="83" y="27" xlink:href="#block"/><use x="91" y="27" xlink:href="#block"/><use x="95" y="27" xlink:href="#block"/><use x="99" y="27" xlink:href="#block"/><use x="107" y="27" xlink:href="#block"/><use x="11" y="31" xlink:href="#block"/><use x="35" y="31" xlink:href="#block"/><use x="43" y="31" xlink:href="#block"/><use x="59" y="31" xlink:href="#block"/><use x="63" y="31" xlink:href="#block"/><use x="67" y="31" xlink:href="#block"/><use x="75" y="31" xlink:href="#block"/><use x="83" y="31" xlink:href="#block"/><use x="107" y="31" xlink:href="#block"/><use x="11" y="35" xlink:href="#block"/><use x="15" y="35" xlink:href="#block"/><use x="19" y="35" xlink:href="#block"/><use x="23" y="35" xlink:href="#block"/><use x="27" y="35" xlink:href="#block"/><use x="31" y="35" xlink:href="#block"/><use x="35" y="35" xlink:href="#block"/><use x="43" y="35" xlink:href="#block"/><use x="51" y="35" xlink:href="#block"/><use x="59" y="35" xlink:href="#block"/><use x="67" y="35" xlink:href="#block"/><use x="75" y="35" xlink:href="#block"/><use x="83" y="35" xlink:href="#block"/><use x="87" y="35" xlink:href="#block"/><use x="91" y="35" xlink:href="#block"/><use x="95" y="35" xlink:href="#block"/><use x="99" y="35" xlink:href="#block"/><use x="103" y="35" xlink:href="#block"/><use x="107" y="35" xlink:href="#block"/><use x="55" y="39" xlink:href="#block"/><use x="63" y="39" xlink:href="#block"/><use x="75" y="39" xlink:href="#block"/><use x="11" y="43" xlink:href="#block"/><use x="15" y="43" xlink:href="#block"/><use x="19" y="43" xlink:href="#block"/><use x="23" y="43" xlink:href="#block"/><use x="27" y="43" xlink:href="#block"/><use x="35" y="43" xlink:href="#block"/><use x="39" y="43" xlink:href="#block"/><use x="43" y="43" xlink:href="#block"/><use x="51" y="43" xlink:href="#block"/><use x="59" y="43" xlink:href="#block"/><use x="63" y="43" xlink:href="#block"/><use x="71" y="43" xlink:href="#block"/><use x="79" y="43" xlink:href="#block"/><use x="87" y="43" xlink:href="#block"/><use x="95" y="43" xlink:href="#block"/><use x="103" y="43" xlink:href="#block"/><use x="11" y="47" xlink:href="#block"/><use x="23" y="47" xlink:href="#block"/><use x="27" y="47" xlink:href="#block"/><use x="43" y="47" xlink:href="#block"/><use x="47" y="47" xlink:href="#block"/><use x="51" y="47" xlink:href="#block"/><use x="55" y="47" xlink:href="#block"/><use x="67" y="47" xlink:href="#block"/><use x="79" y="47" xlink:href="#block"/><use x="87" y="47" xlink:href="#block"/><use x="91" y="47" xlink:href="#block"/><use x="107" y="47" xlink:href="#block"/><use x="11" y="51" xlink:href="#block"/><use x="19" y="51" xlink:href="#block"/><use x="27" y="51" xlink:href="#block"/><use x="31" y="51" xlink:href="#block"/><use x="35" y="51" xlink:href="#block"/><use x="39" y="51" xlink:href="#block"/><use x="43" y="51" xlink:href="#block"/><use x="47" y="51" xlink:href="#block"/><use x="55" y="51" xlink:href="#block"/><use x="59" y="51" xlink:href="#block"/><use x="63" y="51" xlink:href="#block"/><use x="67" y="51" xlink:href="#block"/><use x="71" y="51" xlink:href="#block"/><use x="75" y="51" xlink:href="#block"/><use x="79" y="51" xlink:href="#block"/><use x="83" y="51" xlink:href="#block"/><use x="91" y="51" xlink:href="#block"/><use x="99" y="51" xlink:href="#block"/><use x="11" y="55" xlink:href="#block"/><use x="15" y="55" xlink:href="#block"/><use x="19" y="55" xlink:href="#block"/><use x="23" y="55" xlink:href="#block"/><use x="31" y="55" xlink:href="#block"/><use x="39" y="55" xlink:href="#block"/><use x="47" y="55" xlink:href="#block"/><use x="55" y="55" xlink:href="#block"/><use x="59" y="55" xlink:href="#block"/><use x="75" y="55" xlink:href="#block"/><use x="11" y="59" xlink:href="#block"/><use x="19" y="59" xlink:href="#block"/><use x="23" y="59" xlink:href="#block"/><use x="27" y="59" xlink:href="#block"/><use x="35" y="59" xlink:href="#block"/><use x="39" y="59" xlink:href="#block"/><use x="47" y="59" xlink:href="#block"/><use x="59" y="59" xlink:href="#block"/><use x="71" y="59" xlink:href="#block"/><use x="75" y="59" xlink:href="#block"/><use x="79" y="59" xlink:href="#block"/><use x="83" y="59" xlink:href="#block"/><use x="87" y="59" xlink:href="#block"/><use x="91" y="59" xlink:href="#block"/><use x="95" y="59" xlink:href="#block"/><use x="103" y="59" xlink:href="#block"/><use x="107" y="59" xlink:href="#block"/><use x="11" y="63" xlink:href="#block"/><use x="15" y="63" xlink:href="#block"/><use x="19" y="63" xlink:href="#block"/><use x="23" y="63" xlink:href="#block"/><use x="39" y="63" xlink:href="#block"/><use x="47" y="63" xlink:href="#block"/><use x="55" y="63" xlink:href="#block"/><use x="67" y="63" xlink:href="#block"/><use x="71" y="63" xlink:href="#block"/><use x="75" y="63" xlink:href="#block"/><use x="79" y="63" xlink:href="#block"/><use x="87" y="63" xlink:href="#block"/><use x="91" y="63" xlink:href="#block"/><use x="11" y="67" xlink:href="#block"/><use x="19" y="67" xlink:href="#block"/><use x="23" y="67" xlink:href="#block"/><use x="27" y="67" xlink:href="#block"/><use x="31" y="67" xlink:href="#block"/><use x="35" y="67" xlink:href="#block"/><use x="55" y="67" xlink:href="#block"/><use x="59" y="67" xlink:href="#block"/><use x="63" y="67" xlink:href="#block"/><use x="67" y="67" xlink:href="#block"/><use x="71" y="67" xlink:href="#block"/><use x="79" y="67" xlink:href="#block"/><use x="83" y="67" xlink:href="#block"/><use x="91" y="67" xlink:href="#block"/><use x="99" y="67" xlink:href="#block"/><use x="103" y="67" xlink:href="#block"/><use x="11" y="71" xlink:href="#block"/><use x="19" y="71" xlink:href="#block"/><use x="23" y="71" xlink:href="#block"/><use x="27" y="71" xlink:href="#block"/><use x="31" y="71" xlink:href="#block"/><use x="39" y="71" xlink:href="#block"/><use x="51" y="71" xlink:href="#block"/><use x="55" y="71" xlink:href="#block"/><use x="63" y="71" xlink:href="#block"/><use x="75" y="71" xlink:href="#block"/><use x="103" y="71" xlink:href="#block"/><use x="107" y="71" xlink:href="#block"/><use x="11" y="75" xlink:href="#block"/><use x="23" y="75" xlink:href="#block"/><use x="35" y="75" xlink:href="#block"/><use x="39" y="75" xlink:href="#block"/><use x="43" y="75" xlink:href="#block"/><use x="47" y="75" xlink:href="#block"/><use x="51" y="75" xlink:href="#block"/><use x="67" y="75" xlink:href="#block"/><use x="71" y="75" xlink:href="#block"/><use x="75" y="75" xlink:href="#block"/><use x="79" y="75" xlink:href="#block"/><use x="83" y="75" xlink:href="#block"/><use x="87" y="75" xlink:href="#block"/><use x="91" y="75" xlink:href="#block"/><use x="95" y="75" xlink:href="#block"/><use x="107" y="75" xlink:href="#block"/><use x="43" y="79" xlink:href="#block"/><use x="47" y="79" xlink:href="#block"/><use x="59" y="79" xlink:href="#block"/><use x="67" y="79" xlink:href="#block"/><use x="71" y="79" xlink:href="#block"/><use x="75" y="79" xlink:href="#block"/><use x="91" y="79" xlink:href="#block"/><use x="107" y="79" xlink:href="#block"/><use x="11" y="83" xlink:href="#block"/><use x="15" y="83" xlink:href="#block"/><use x="19" y="83" xlink:href="#block"/><use x="23" y="83" xlink:href="#block"/><use x="27" y="83" xlink:href="#block"/><use x="31" y="83" xlink:href="#block"/><use x="35" y="83" xlink:href="#block"/><use x="43" y="83" xlink:href="#block"/><use x="47" y="83" xlink:href="#block"/><use x="59" y="83" xlink:href="#block"/><use x="63" y="83" xlink:href="#block"/><use x="67" y="83" xlink:href="#block"/><use x="71" y="83" xlink:href="#block"/><use x="75" y="83" xlink:href="#block"/><use x="83" y="83" xlink:href="#block"/><use x="91" y="83" xlink:href="#block"/><use x="99" y="83" xlink:href="#block"/><use x="103" y="83" xlink:href="#block"/><use x="107" y="83" xlink:href="#block"/><use x="11" y="87" xlink:href="#block"/><use x="35" y="87" xlink:href="#block"/><use x="47" y="87" xlink:href="#block"/><use x="51" y="87" xlink:href="#block"/><use x="55" y="87" xlink:href="#block"/><use x="75" y="87" xlink:href="#block"/><use x="91" y="87" xlink:href="#block"/><use x="95" y="87" xlink:href="#block"/><use x="11" y="91" xlink:href="#block"/><use x="19" y="91" xlink:href="#block"/><use x="23" y="91" xlink:href="#block"/><use x="27" y="91" xlink:href="#block"/><use x="35" y="91" xlink:href="#block"/><use x="43" y="91" xlink:href="#block"/><use x="59" y="91" xlink:href="#block"/><use x="67" y="91" xlink:href="#block"/><use x="75" y="91" xlink:href="#block"/><use x="79" y="91" xlink:href="#block"/><use x="83" y="91" xlink:href="#block"/><use x="87" y="91" xlink:href="#block"/><use x="91" y="91" xlink:href="#block"/><use x="95" y="91" xlink:href="#block"/><use x="11" y="95" xlink:href="#block"/><use x="19" y="95" xlink:href="#block"/><use x="23" y="95" xlink:href="#block"/><use x="27" y="95" xlink:href="#block"/><use x="35" y="95" xlink:href="#block"/><use x="43" y="95" xlink:href="#block"/><use x="51" y="95" xlink:href="#block"/><use x="59" y="95" xlink:href="#block"/><use x="67" y="95" xlink:href="#block"/><use x="71" y="95" xlink:href="#block"/><use x="75" y="95" xlink:href="#block"/><use x="83" y="95" xlink:href="#block"/><use x="91" y="95" xlink:href="#block"/><use x="103" y="95" xlink:href="#block"/><use x="107" y="95" xlink:href="#block"/><use x="11" y="99" xlink:href="#block"/><use x="19" y="99" xlink:href="#block"/><use x="23" y="99" xlink:href="#block"/><use x="27" y="99" xlink:href="#block"/><use x="35" y="99" xlink:href="#block"/><use x="43" y="99" xlink:href="#block"/><use x="51" y="99" xlink:href="#block"/><use x="55" y="99" xlink:href="#block"/><use x="59" y="99" xlink:href="#block"/><use x="63" y="99" xlink:href="#block"/><use x="67" y="99" xlink:href="#block"/><use x="79" y="99" xlink:href="#block"/><use x="83" y="99" xlink:href="#block"/><use x="91" y="99" xlink:href="#block"/><use x="99" y="99" xlink:href="#block"/><use x="107" y="99" xlink:href="#block"/><use x="11" y="103" xlink:href="#block"/><use x="35" y="103" xlink:href="#block"/><use x="43" y="103" xlink:href="#block"/><use x="55" y="103" xlink:href="#block"/><use x="71" y="103" xlink:href="#block"/><use x="79" y="103" xlink:href="#block"/><use x="83" y="103" xlink:href="#block"/><use x="87" y="103" xlink:href="#block"/><use x="91" y="103" xlink:href="#block"/><use x="95" y="103" xlink:href="#block"/><use x="103" y="103" xlink:href="#block"/><use x="11" y="107" xlink:href="#block"/><use x="15" y="107" xlink:href="#block"/><use x="19" y="107" xlink:href="#block"/><use x="23" y="107" xlink:href="#block"/><use x="27" y="107" xlink:href="#block"/><use x="31" y="107" xlink:href="#block"/><use x="35" y="107" xlink:href="#block"/><use x="43" y="107" xlink:href="#block"/><use x="47" y="107" xlink:href="#block"/><use x="51" y="107" xlink:href="#block"/><use x="63" y="107" xlink:href="#block"/><use x="75" y="107" xlink:href="#block"/><use x="99" y="107" xlink:href="#block"/><use x="103" y="107" xlink:href="#block"/><use x="107" y="107" xlink:href="#block"/></svg>
