<?xml version="1.0"?>
<svg xmlns="http://www.w3.org/2000/svg" xmlns:xlink="http://www.w3.org/1999/xlink" version="1.1" width="220px" height="220px" viewBox="0 0 220 220"><defs><rect id="block" width="8" height="8" fill="#000000" fill-opacity="0.99212598425197"/></defs><rect x="0" y="0" width="220" height="220" fill="#ffffff" fill-opacity="0.99212598425197"/><use x="10" y="10" xlink:href="#block"/><use x="18" y="10" xlink:href="#block"/><use x="26" y="10" xlink:href="#block"/><use x="34" y="10" xlink:href="#block"/><use x="42" y="10" xlink:href="#block"/><use x="50" y="10" xlink:href="#block"/><use x="58" y="10" xlink:href="#block"/><use x="82" y="10" xlink:href="#block"/><use x="90" y="10" xlink:href="#block"/><use x="98" y="10" xlink:href="#block"/><use x="138" y="10" xlink:href="#block"/><use x="154" y="10" xlink:href="#block"/><use x="162" y="10" xlink:href="#block"/><use x="170" y="10" xlink:href="#block"/><use x="178" y="10" xlink:href="#block"/><use x="186" y="10" xlink:href="#block"/><use x="194" y="10" xlink:href="#block"/><use x="202" y="10" xlink:href="#block"/><use x="10" y="18" xlink:href="#block"/><use x="58" y="18" xlink:href="#block"/><use x="74" y="18" xlink:href="#block"/><use x="90" y="18" xlink:href="#block"/><use x="98" y="18" xlink:href="#block"/><use x="106" y="18" xlink:href="#block"/><use x="114" y="18" xlink:href="#block"/><use x="122" y="18" xlink:href="#block"/><use x="154" y="18" xlink:href="#block"/><use x="202" y="18" xlink:href="#block"/><use x="10" y="26" xlink:href="#block"/><use x="26" y="26" xlink:href="#block"/><use x="34" y="26" xlink:href="#block"/><use x="42" y="26" xlink:href="#block"/><use x="58" y="26" xlink:href="#block"/><use x="98" y="26" xlink:href="#block"/><use x="114" y="26" xlink:href="#block"/><use x="154" y="26" xlink:href="#block"/><use x="170" y="26" xlink:href="#block"/><use x="178" y="26" xlink:href="#block"/><use x="186" y="26" xlink:href="#block"/><use x="202" y="26" xlink:href="#block"/><use x="10" y="34" xlink:href="#block"/><use x="26" y="34" xlink:href="#block"/><use x="34" y="34" xlink:href="#block"/><use x="42" y="34" xlink:href="#block"/><use x="58" y="34" xlink:href="#block"/><use x="74" y="34" xlink:href="#block"/><use x="82" y="34" xlink:href="#block"/><use x="90" y="34" xlink:href="#block"/><use x="114" y="34" xlink:href="#block"/><use x="122" y="34" xlink:href="#block"/><use x="130" y="34" xlink:href="#block"/><use x="138" y="34" xlink:href="#block"/><use x="154" y="34" xlink:href="#block"/><use x="170" y="34" xlink:href="#block"/><use x="178" y="34" xlink:href="#block"/><use x="186" y="34" xlink:href="#block"/><use x="202" y="34" xlink:href="#block"/><use x="10" y="42" xlink:href="#block"/><use x="26" y="42" xlink:href="#block"/><use x="34" y="42" xlink:href="#block"/><use x="42" y="42" xlink:href="#block"/><use x="58" y="42" xlink:href="#block"/><use x="82" y="42" xlink:href="#block"/><use x="90" y="42" xlink:href="#block"/><use x="98" y="42" xlink:href="#block"/><use x="106" y="42" xlink:href="#block"/><use x="122" y="42" xlink:href="#block"/><use x="130" y="42" xlink:href="#block"/><use x="154" y="42" xlink:href="#block"/><use x="170" y="42" xlink:href="#block"/><use x="178" y="42" xlink:href="#block"/><use x="186" y="42" xlink:href="#block"/><use x="202" y="42" xlink:href="#block"/><use x="10" y="50" xlink:href="#block"/><use x="58" y="50" xlink:href="#block"/><use x="74" y="50" xlink:href="#block"/><use x="106" y="50" xlink:href="#block"/><use x="114" y="50" xlink:href="#block"/><use x="122" y="50" xlink:href="#block"/><use x="138" y="50" xlink:href="#block"/><use x="154" y="50" xlink:href="#block"/><use x="202" y="50" xlink:href="#block"/><use x="10" y="58" xlink:href="#block"/><use x="18" y="58" xlink:href="#block"/><use x="26" y="58" xlink:href="#block"/><use x="34" y="58" xlink:href="#block"/><use x="42" y="58" xlink:href="#block"/><use x="50" y="58" xlink:href="#block"/><use x="58" y="58" xlink:href="#block"/><use x="74" y="58" xlink:href="#block"/><use x="90" y="58" xlink:href="#block"/><use x="106" y="58" xlink:href="#block"/><use x="122" y="58" xlink:href="#block"/><use x="138" y="58" xlink:href="#block"/><use x="154" y="58" xlink:href="#block"/><use x="162" y="58" xlink:href="#block"/><use x="170" y="58" xlink:href="#block"/><use x="178" y="58" xlink:href="#block"/><use x="186" y="58" xlink:href="#block"/><use x="194" y="58" xlink:href="#block"/><use x="202" y="58" xlink:href="#block"/><use x="98" y="66" xlink:href="#block"/><use x="114" y="66" xlink:href="#block"/><use x="138" y="66" xlink:href="#block"/><use x="10" y="74" xlink:href="#block"/><use x="18" y="74" xlink:href="#block"/><use x="26" y="74" xlink:href="#block"/><use x="34" y="74" xlink:href="#block"/><use x="42" y="74" xlink:href="#block"/><use x="58" y="74" xlink:href="#block"/><use x="66" y="74" xlink:href="#block"/><use x="74" y="74" xlink:href="#block"/><use x="90" y="74" xlink:href="#block"/><use x="106" y="74" xlink:href="#block"/><use x="114" y="74" xlink:href="#block"/><use x="130" y="74" xlink:href="#block"/><use x="146" y="74" xlink:href="#block"/><use x="162" y="74" xlink:href="#block"/><use x="178" y="74" xlink:href="#block"/><use x="194" y="74" xlink:href="#block"/><use x="10" y="82" xlink:href="#block"/><use x="34" y="82" xlink:href="#block"/><use x="42" y="82" xlink:href="#block"/><use x="74" y="82" xlink:href="#block"/><use x="82" y="82" xlink:href="#block"/><use x="90" y="82" xlink:href="#block"/><use x="98" y="82" xlink:href="#block"/><use x="122" y="82" xlink:href="#block"/><use x="146" y="82" xlink:href="#block"/><use x="162" y="82" xlink:href="#block"/><use x="170" y="82" xlink:href="#block"/><use x="202" y="82" xlink:href="#block"/><use x="10" y="90" xlink:href="#block"/><use x="26" y="90" xlink:href="#block"/><use x="42" y="90" xlink:href="#block"/><use x="50" y="90" xlink:href="#block"/><use x="58" y="90" xlink:href="#block"/><use x="66" y="90" xlink:href="#block"/><use x="74" y="90" xlink:href="#block"/><use x="82" y="90" xlink:href="#block"/><use x="98" y="90" xlink:href="#block"/><use x="106" y="90" xlink:href="#block"/><use x="114" y="90" xlink:href="#block"/><use x="122" y="90" xlink:href="#block"/><use x="130" y="90" xlink:href="#block"/><use x="138" y="90" xlink:href="#block"/><use x="146" y="90" xlink:href="#block"/><use x="154" y="90" xlink:href="#block"/><use x="170" y="90" xlink:href="#block"/><use x="186" y="90" xlink:href="#block"/><use x="10" y="98" xlink:href="#block"/><use x="18" y="98" xlink:href="#block"/><use x="26" y="98" xlink:href="#block"/><use x="34" y="98" xlink:href="#block"/><use x="50" y="98" xlink:href="#block"/><use x="66" y="98" xlink:href="#block"/><use x="82" y="98" xlink:href="#block"/><use x="98" y="98" xlink:href="#block"/><use x="106" y="98" xlink:href="#block"/><use x="138" y="98" xlink:href="#block"/><use x="10" y="106" xlink:href="#block"/><use x="26" y="106" xlink:href="#block"/><use x="34" y="106" xlink:href="#block"/><use x="42" y="106" xlink:href="#block"/><use x="58" y="106" xlink:href="#block"/><use x="66" y="106" xlink:href="#block"/><use x="82" y="106" xlink:href="#block"/><use x="106" y="106" xlink:href="#block"/><use x="130" y="106" xlink:href="#block"/><use x="138" y="106" xlink:href="#block"/><use x="146" y="106" xlink:href="#block"/><use x="154" y="106" xlink:href="#block"/><use x="162" y="106" xlink:href="#block"/><use x="170" y="106" xlink:href="#block"/><use x="178" y="106" xlink:href="#block"/><use x="194" y="106" xlink:href="#block"/><use x="202" y="106" xlink:href="#block"/><use x="10" y="114" xlink:href="#block"/><use x="18" y="114" xlink:href="#block"/><use x="26" y="114" xlink:href="#block"/><use x="34" y="114" xlink:href="#block"/><use x="66" y="114" xlink:href="#block"/><use x="82" y="114" xlink:href="#block"/><use x="98" y="114" xlink:href="#block"/><use x="122" y="114" xlink:href="#block"/><use x="130" y="114" xlink:href="#block"/><use x="138" y="114" xlink:href="#block"/><use x="146" y="114" xlink:href="#block"/><use x="162" y="114" xlink:href="#block"/><use x="170" y="114" xlink:href="#block"/><use x="10" y="122" xlink:href="#block"/><use x="26" y="122" xlink:href="#block"/><use x="34" y="122" xlink:href="#block"/><use x="42" y="122" xlink:href="#block"/><use x="50" y="122" xlink:href="#block"/><use x="58" y="122" xlink:href="#block"/><use x="98" y="122" xlink:href="#block"/><use x="106" y="122" xlink:href="#block"/><use x="114" y="122" xlink:href="#block"/><use x="122" y="122" xlink:href="#block"/><use x="130" y="122" xlink:href="#block"/><use x="146" y="122" xlink:href="#block"/><use x="154" y="122" xlink:href="#block"/><use x="170" y="122" xlink:href="#block"/><use x="186" y="122" xlink:href="#block"/><use x="194" y="122" xlink:href="#block"/><use x="10" y="130" xlink:href="#block"/><use x="26" y="130" xlink:href="#block"/><use x="34" y="130" xlink:href="#block"/><use x="42" y="130" xlink:href="#block"/><use x="50" y="130" xlink:href="#block"/><use x="66" y="130" xlink:href="#block"/><use x="90" y="130" xlink:href="#block"/><use x="98" y="130" xlink:href="#block"/><use x="114" y="130" xlink:href="#block"/><use x="138" y="130" xlink:href="#block"/><use x="194" y="130" xlink:href="#block"/><use x="202" y="130" xlink:href="#block"/><use x="10" y="138" xlink:href="#block"/><use x="34" y="138" xlink:href="#block"/><use x="58" y="138" xlink:href="#block"/><use x="66" y="138" xlink:href="#block"/><use x="74" y="138" xlink:href="#block"/><use x="82" y="138" xlink:href="#block"/><use x="90" y="138" xlink:href="#block"/><use x="122" y="138" xlink:href="#block"/><use x="130" y="138" xlink:href="#block"/><use x="138" y="138" xlink:href="#block"/><use x="146" y="138" xlink:href="#block"/><use x="154" y="138" xlink:href="#block"/><use x="162" y="138" xlink:href="#block"/><use x="170" y="138" xlink:href="#block"/><use x="178" y="138" xlink:href="#block"/><use x="202" y="138" xlink:href="#block"/><use x="74" y="146" xlink:href="#block"/><use x="82" y="146" xlink:href="#block"/><use x="106" y="146" xlink:href="#block"/><use x="122" y="146" xlink:href="#block"/><use x="130" y="146" xlink:href="#block"/><use x="138" y="146" xlink:href="#block"/><use x="170" y="146" xlink:href="#block"/><use x="202" y="146" xlink:href="#block"/><use x="10" y="154" xlink:href="#block"/><use x="18" y="154" xlink:href="#block"/><use x="26" y="154" xlink:href="#block"/><use x="34" y="154" xlink:href="#block"/><use x="42" y="154" xlink:href="#block"/><use x="50" y="154" xlink:href="#block"/><use x="58" y="154" xlink:href="#block"/><use x="74" y="154" xlink:href="#block"/><use x="82" y="154" xlink:href="#block"/><use x="106" y="154" xlink:href="#block"/><use x="114" y="154" xlink:href="#block"/><use x="122" y="154" xlink:href="#block"/><use x="130" y="154" xlink:href="#block"/><use x="138" y="154" xlink:href="#block"/><use x="154" y="154" xlink:href="#block"/><use x="170" y="154" xlink:href="#block"/><use x="186" y="154" xlink:href="#block"/><use x="194" y="154" xlink:href="#block"/><use x="202" y="154" xlink:href="#block"/><use x="10" y="162" xlink:href="#block"/><use x="58" y="162" xlink:href="#block"/><use x="82" y="162" xlink:href="#block"/><use x="90" y="162" xlink:href="#block"/><use x="98" y="162" xlink:href="#block"/><use x="138" y="162" xlink:href="#block"/><use x="170" y="162" xlink:href="#block"/><use x="178" y="162" xlink:href="#block"/><use x="10" y="170" xlink:href="#block"/><use x="26" y="170" xlink:href="#block"/><use x="34" y="170" xlink:href="#block"/><use x="42" y="170" xlink:href="#block"/><use x="58" y="170" xlink:href="#block"/><use x="74" y="170" xlink:href="#block"/><use x="106" y="170" xlink:href="#block"/><use x="122" y="170" xlink:href="#block"/><use x="138" y="170" xlink:href="#block"/><use x="146" y="170" xlink:href="#block"/><use x="154" y="170" xlink:href="#block"/><use x="162" y="170" xlink:href="#block"/><use x="170" y="170" xlink:href="#block"/><use x="178" y="170" xlink:href="#block"/><use x="10" y="178" xlink:href="#block"/><use x="26" y="178" xlink:href="#block"/><use x="34" y="178" xlink:href="#block"/><use x="42" y="178" xlink:href="#block"/><use x="58" y="178" xlink:href="#block"/><use x="74" y="178" xlink:href="#block"/><use x="90" y="178" xlink:href="#block"/><use x="106" y="178" xlink:href="#block"/><use x="122" y="178" xlink:href="#block"/><use x="130" y="178" xlink:href="#block"/><use x="138" y="178" xlink:href="#block"/><use x="154" y="178" xlink:href="#block"/><use x="170" y="178" xlink:href="#block"/><use x="194" y="178" xlink:href="#block"/><use x="202" y="178" xlink:href="#block"/><use x="10" y="186" xlink:href="#block"/><use x="26" y="186" xlink:href="#block"/><use x="34" y="186" xlink:href="#block"/><use x="42" y="186" xlink:href="#block"/><use x="58" y="186" xlink:href="#block"/><use x="74" y="186" xlink:href="#block"/><use x="90" y="186" xlink:href="#block"/><use x="98" y="186" xlink:href="#block"/><use x="106" y="186" xlink:href="#block"/><use x="114" y="186" xlink:href="#block"/><use x="122" y="186" xlink:href="#block"/><use x="146" y="186" xlink:href="#block"/><use x="154" y="186" xlink:href="#block"/><use x="170" y="186" xlink:href="#block"/><use x="186" y="186" xlink:href="#block"/><use x="202" y="186" xlink:href="#block"/><use x="10" y="194" xlink:href="#block"/><use x="58" y="194" xlink:href="#block"/><use x="74" y="194" xlink:href="#block"/><use x="98" y="194" xlink:href="#block"/><use x="130" y="194" xlink:href="#block"/><use x="146" y="194" xlink:href="#block"/><use x="154" y="194" xlink:href="#block"/><use x="162" y="194" xlink:href="#block"/><use x="170" y="194" xlink:href="#block"/><use x="178" y="194" xlink:href="#block"/><use x="194" y="194" xlink:href="#block"/><use x="10" y="202" xlink:href="#block"/><use x="18" y="202" xlink:href="#block"/><use x="26" y="202" xlink:href="#block"/><use x="34" y="202" xlink:href="#block"/><use x="42" y="202" xlink:href="#block"/><use x="50" y="202" xlink:href="#block"/><use x="58" y="202" xlink:href="#block"/><use x="74" y="202" xlink:href="#block"/><use x="82" y="202" xlink:href="#block"/><use x="90" y="202" xlink:href="#block"/><use x="114" y="202" xlink:href="#block"/><use x="138" y="202" xlink:href="#block"/><use x="186" y="202" xlink:href="#block"/><use x="194" y="202" xlink:href="#block"/><use x="202" y="202" xlink:href="#block"/></svg>
