<svg id="グループ_35" data-name="グループ 35" xmlns="http://www.w3.org/2000/svg" width="20.4" height="20.4" viewBox="0 0 20.4 20.4">
  <g id="グループ_34" data-name="グループ 34">
    <path id="パス_4" data-name="パス 4" d="M4,12.5h8.5V4H4ZM5.6,5.6h5.3v5.3H5.6Z" transform="translate(-4 -4)" fill="#fff"/>
    <path id="パス_5" data-name="パス 5" d="M4,19.5h8.5V11H4Zm1.6-6.9h5.3v5.3H5.6Z" transform="translate(-4 0.9)" fill="#fff"/>
    <path id="パス_6" data-name="パス 6" d="M11,4v8.5h8.5V4Zm6.9,6.9H12.6V5.6h5.3Z" transform="translate(0.9 -4)" fill="#fff"/>
    <rect id="長方形_27" data-name="長方形 27" width="2" height="1" transform="translate(18.2 19.2)" fill="#fff"/>
    <rect id="長方形_28" data-name="長方形 28" width="2" height="2" transform="translate(18.2 15.2)" fill="#fff"/>
    <rect id="長方形_29" data-name="長方形 29" width="2" height="1" transform="translate(18.2 12.2)" fill="#fff"/>
    <rect id="長方形_30" data-name="長方形 30" width="2" height="2" transform="translate(13.2 13.2)" fill="#fff"/>
    <rect id="長方形_31" data-name="長方形 31" width="1" height="1" transform="translate(12.2 12.2)" fill="#fff"/>
    <rect id="長方形_32" data-name="長方形 32" width="2" height="2" transform="translate(15.2 15.2)" fill="#fff"/>
    <rect id="長方形_33" data-name="長方形 33" width="1" height="2" transform="translate(17.2 17.2)" fill="#fff"/>
    <rect id="長方形_34" data-name="長方形 34" width="2" height="1" transform="translate(15.2 12.2)" fill="#fff"/>
    <rect id="長方形_35" data-name="長方形 35" width="1" height="2" transform="translate(17.2 13.2)" fill="#fff"/>
    <rect id="長方形_36" data-name="長方形 36" width="1" height="2" transform="translate(12.2 15.2)" fill="#fff"/>
    <rect id="長方形_37" data-name="長方形 37" width="2" height="2" transform="translate(13.2 17.2)" fill="#fff"/>
    <rect id="長方形_38" data-name="長方形 38" width="1" height="1" transform="translate(12.2 19.2)" fill="#fff"/>
    <rect id="長方形_39" data-name="長方形 39" width="2" height="1" transform="translate(15.2 19.2)" fill="#fff"/>
  </g>
</svg>
